<svg version="1.1" id="Layer_1" xmlns="http://www.w3.org/2000/svg" xmlns:xlink="http://www.w3.org/1999/xlink" x="0px" y="0px"
	 width="100%" viewBox="0 0 225 225" enable-background="new 0 0 225 225" xml:space="preserve">
<path fill="#FEFEFE" opacity="1.000000" stroke="none" 
	d="
M157.000000,226.000000 
	C104.666672,226.000000 52.833340,226.000000 1.000007,226.000000 
	C1.000005,151.000000 1.000005,76.000015 1.000002,1.000017 
	C75.999992,1.000011 150.999985,1.000011 225.999969,1.000006 
	C225.999985,75.999985 225.999985,150.999969 226.000000,225.999969 
	C203.166672,226.000000 180.333328,226.000000 157.000000,226.000000 
M63.406677,154.943619 
	C63.957840,154.582062 64.508995,154.220505 65.851135,153.879532 
	C72.115562,153.446518 69.579895,148.725693 69.623024,145.296661 
	C71.459053,144.903351 72.988983,144.575638 74.684395,144.212463 
	C75.338684,146.973419 75.901970,149.350342 76.493645,151.847092 
	C80.300362,151.816864 81.603165,149.952255 80.958961,146.478485 
	C80.265099,142.736832 79.863228,138.900024 78.714745,135.302414 
	C78.205254,133.706436 76.174438,132.596130 74.834198,131.265366 
	C74.319489,132.870102 73.874092,134.501480 73.270714,136.072159 
	C72.658348,137.666260 71.890022,139.200485 71.189995,140.760925 
	C70.102852,139.639648 68.347496,138.668716 68.054993,137.368652 
	C67.208626,133.606796 65.645195,132.026779 61.230770,133.967438 
	C60.796326,133.988434 60.361877,134.009445 59.185799,134.119156 
	C53.018772,133.932678 54.368843,140.217361 51.423302,143.563354 
	C50.689053,140.733337 50.091854,138.431549 49.495384,136.132568 
	C45.554165,136.340256 44.419960,138.347687 45.134632,141.802963 
	C45.807182,145.054596 46.059933,148.436111 47.118484,151.549271 
	C47.789680,153.523224 49.597046,155.110825 50.894859,156.871704 
	C51.390938,154.736801 51.897907,152.604324 52.371056,150.464355 
	C52.440098,150.152084 52.347729,149.804138 52.775547,149.174911 
	C52.908165,149.055267 53.040787,148.935608 53.806934,149.070831 
	C56.516792,151.398300 57.659943,156.128891 63.406677,154.943619 
M151.861191,137.598770 
	C155.276321,137.060349 158.728531,136.679794 162.084976,135.891525 
	C163.152878,135.640732 163.966125,134.305496 164.895889,133.466492 
	C163.626602,132.763519 162.416016,131.661850 161.072342,131.463974 
	C159.576019,131.243622 157.958603,131.845734 156.191315,132.121414 
	C155.150726,126.439873 160.570129,129.324173 162.079071,126.770020 
	C161.726501,125.706421 161.287933,124.383385 161.098862,123.813026 
	C158.309525,123.522263 156.200302,123.302391 154.091080,123.082520 
	C154.138443,122.514694 154.185806,121.946861 154.233170,121.379028 
	C156.757492,120.784027 159.281799,120.189026 161.791443,119.597488 
	C160.917114,115.009567 156.058380,114.594612 148.330673,118.186775 
	C149.258194,124.753578 150.179108,131.273697 150.679321,137.167770 
	C144.180847,132.058014 142.018555,125.850952 146.835800,118.303482 
	C139.096146,117.245621 140.870621,124.190529 137.993149,127.027443 
	C135.341019,119.534683 135.341019,119.534683 130.825867,121.682938 
	C131.985764,127.932770 133.158173,134.250076 134.322693,140.524902 
	C141.171265,140.812103 138.455429,135.611588 138.938828,131.852234 
	C142.865799,134.907944 144.562485,141.755478 151.861191,137.598770 
M183.843689,177.470108 
	C183.804214,168.296738 183.764740,159.123367 183.905472,149.075653 
	C183.905472,146.774750 183.905472,144.473862 183.905472,141.981216 
	C135.882584,150.951904 88.241920,159.851196 40.365322,168.794540 
	C36.316303,147.016052 32.449055,126.215248 28.531439,105.143539 
	C80.699326,95.375610 132.189407,85.734596 183.952820,76.042397 
	C183.563324,72.930626 183.256454,70.478989 183.044983,67.223221 
	C182.704636,65.430717 182.438370,63.620426 182.012650,61.848434 
	C176.847046,40.346565 157.872055,24.999567 135.597046,24.534143 
	C116.619812,23.191605 101.112434,30.248606 89.212975,44.731583 
	C79.001465,57.160126 76.013176,72.006279 76.179108,87.939369 
	C69.205162,89.501678 62.264210,91.237152 55.247345,92.574265 
	C49.077320,93.750008 42.803036,94.368080 36.610058,95.436790 
	C29.870501,96.599823 23.152437,97.911934 16.476231,99.390373 
	C15.507328,99.604942 14.128712,101.114494 14.137171,102.013542 
	C14.163591,104.821800 14.749036,107.092049 18.415354,108.093315 
	C24.763641,109.827034 25.621998,115.885712 20.568733,120.320244 
	C16.564407,123.834290 17.851770,130.617432 22.877380,132.484512 
	C29.037018,134.772903 30.367399,140.751999 25.242641,144.800003 
	C22.759476,146.761459 22.573118,148.692657 23.133501,151.238617 
	C23.522333,153.005142 23.972500,154.758179 24.377682,156.444107 
	C25.957930,156.934296 27.435703,157.217178 28.757456,157.834259 
	C33.503853,160.050156 34.884468,165.763779 30.724157,168.700577 
	C26.192682,171.899384 27.571974,175.072708 28.646172,178.840973 
	C44.916298,175.896484 60.905010,173.002930 76.953941,171.001907 
	C76.953941,173.266815 76.953941,175.531708 76.953941,178.069946 
	C86.269958,178.069946 95.051834,178.088318 103.833611,178.066513 
	C130.250717,178.000900 156.667786,177.919617 183.843689,177.470108 
M104.328331,146.909866 
	C107.153145,146.228119 109.977951,145.546371 112.864586,144.849701 
	C111.583725,139.053299 112.145226,132.279617 105.272118,131.123627 
	C101.097061,130.421387 95.567245,130.113434 92.488136,134.417191 
	C89.137047,139.101074 90.789574,144.096436 92.906914,149.046722 
	C96.687035,148.321564 100.089226,147.668915 104.328331,146.909866 
M120.679565,139.287628 
	C122.215614,138.796692 123.751671,138.305756 125.540871,137.733902 
	C126.831390,141.365601 128.703217,143.528305 132.897675,140.968307 
	C130.388382,135.524460 127.732666,130.071808 125.352516,124.501404 
	C123.452515,120.054726 120.086433,125.235832 117.839111,123.230400 
	C117.795876,123.191818 116.122612,124.369408 116.077774,125.037796 
	C115.644005,131.503906 115.396240,137.982513 115.095352,144.457535 
	C115.516106,144.642685 115.936867,144.827820 116.357628,145.012970 
	C117.687645,143.352142 119.017662,141.691330 120.679565,139.287628 
M109.816200,120.870354 
	C110.413399,118.211266 111.010597,115.552170 111.653671,112.688820 
	C114.952484,114.460739 116.167641,121.954033 123.105377,117.566902 
	C117.420914,112.713722 113.334976,107.335632 118.849380,99.301590 
	C116.153717,99.581795 114.663391,99.736717 113.264755,99.882095 
	C112.336250,102.350014 111.437027,104.740089 110.061279,108.396751 
	C109.108284,104.799820 108.503845,102.518463 107.841507,100.018570 
	C105.996223,100.516037 104.485832,100.923225 102.855659,101.362701 
	C103.956520,107.418556 104.881950,113.141983 106.141594,118.790871 
	C106.342140,119.690224 108.044327,120.254730 109.816200,120.870354 
M180.276245,130.082321 
	C178.616241,129.649048 176.946930,129.248047 175.299210,128.772217 
	C174.008041,128.399338 172.743622,127.933800 171.467316,127.509430 
	C171.585388,126.996284 171.703445,126.483131 171.821503,125.969986 
	C173.713089,125.513496 175.604675,125.057007 177.786194,124.530540 
	C177.478043,123.062790 177.189774,121.689728 176.987411,120.725838 
	C174.386871,120.507675 172.156143,120.320541 169.925400,120.133408 
	C169.979431,119.572998 170.033447,119.012596 170.087463,118.452187 
	C172.610764,117.832764 175.134048,117.213341 177.857727,116.544724 
	C177.488693,114.995522 177.163101,113.628639 176.807526,112.135986 
	C172.260803,113.048843 168.136917,113.876808 163.787689,114.750008 
	C164.967361,121.308281 166.039734,127.316299 167.144058,133.318451 
	C167.229126,133.780777 167.539352,134.201660 167.829132,134.822083 
	C171.242035,134.213257 174.669418,133.727280 178.020538,132.923462 
	C178.959610,132.698196 179.674194,131.537140 180.276245,130.082321 
M130.135330,103.891380 
	C129.229507,103.317749 128.323669,102.744118 126.558655,101.626396 
	C130.282349,100.744301 132.669922,100.178711 135.341980,99.545738 
	C134.998352,98.005493 134.696060,96.650475 134.451462,95.554131 
	C130.051910,96.208511 126.092438,96.797432 121.335251,97.505005 
	C122.445923,103.666656 123.299797,109.355362 124.635307,114.928665 
	C124.873611,115.923119 127.071960,116.957375 128.429428,117.051880 
	C130.350739,117.185669 132.321289,116.248802 134.289383,116.153542 
	C137.746887,115.986176 139.154846,112.813332 137.528870,111.685036 
	C135.372223,110.188492 131.929962,111.048286 129.185028,110.903191 
	C131.013321,109.810616 132.843109,108.720520 134.666901,107.620491 
	C134.804047,107.537773 134.898407,107.384163 135.015549,107.260139 
	C135.439758,104.041389 134.540146,102.361786 130.135330,103.891380 
M94.329659,108.308395 
	C96.542900,106.986557 98.756149,105.664719 101.771347,103.863930 
	C96.151833,101.940086 92.319572,101.990738 89.447212,105.911049 
	C87.170097,109.018944 87.554169,115.792068 90.106369,119.579842 
	C92.649010,123.353416 96.390182,123.486465 100.285530,122.863159 
	C103.614258,122.330513 104.941498,120.730911 102.589943,117.632957 
	C95.173561,119.010429 93.290665,117.093422 94.329659,108.308395 
M153.604828,94.759117 
	C152.121216,93.949242 150.540970,92.321815 149.172211,92.483589 
	C145.149002,92.959099 141.209747,94.144989 137.237518,95.052299 
	C137.720306,99.087448 137.720306,99.087448 143.118668,99.113953 
	C144.108215,103.986969 145.114227,108.941086 146.151031,114.046898 
	C150.119934,113.133614 151.684448,111.420456 150.442673,107.427696 
	C149.481277,104.336548 149.286972,101.006821 148.793503,98.035072 
	C150.702087,97.071426 152.232010,96.298958 153.604828,94.759117 
M63.593197,108.371193 
	C60.630234,109.037201 58.955849,110.345848 61.087147,113.647881 
	C62.610752,113.466187 64.182510,113.278748 65.951385,113.067802 
	C67.048820,118.313377 68.083466,123.258858 69.164444,128.425766 
	C71.128616,127.986084 72.523354,127.673866 73.608459,127.430962 
	C75.551384,121.030952 66.948502,113.722519 76.596031,108.765373 
	C76.452057,108.351372 76.308075,107.937370 76.164093,107.523369 
	C72.211319,107.743935 68.258545,107.964500 63.593197,108.371193 
M79.713669,113.967148 
	C80.457306,117.954361 81.200943,121.941582 81.986542,126.153778 
	C84.044479,125.570839 85.548988,125.144669 87.268532,124.657585 
	C86.189896,119.150795 84.988228,114.021080 84.227425,108.826797 
	C83.570007,104.338379 81.369209,104.624580 78.172928,106.123329 
	C78.653053,108.648964 79.080948,110.899895 79.713669,113.967148 
M83.385406,145.130371 
	C83.736664,146.715424 84.087914,148.300461 84.522285,150.260574 
	C86.203667,150.046021 87.748283,149.848907 89.740585,149.594681 
	C88.796616,144.482285 87.907104,139.808960 87.075981,135.125259 
	C86.139236,129.846329 86.158546,129.840225 80.972221,131.711823 
	C81.700409,135.893082 82.433090,140.100159 83.385406,145.130371 
M49.908546,116.844711 
	C48.604336,118.340202 47.300129,119.835701 46.187412,121.111610 
	C47.342819,122.932976 48.576069,124.877037 49.661564,126.588188 
	C51.722015,126.184570 53.856590,125.766434 55.589100,125.427055 
	C55.937275,123.131790 56.263649,120.980270 56.550919,119.086494 
	C54.391518,118.117622 52.242443,117.153389 49.908546,116.844711 
M159.446884,100.459648 
	C160.574661,102.094070 161.702423,103.728485 162.681870,105.147972 
	C164.593750,104.834358 166.855576,104.463333 168.707794,104.159508 
	C169.002197,101.922768 169.301422,99.649292 169.547302,97.781166 
	C167.470245,96.722916 165.389175,95.662613 163.718918,94.811630 
	C162.218353,96.440033 160.563065,98.236328 159.446884,100.459648 
z"/>
<path fill="#AF0505" opacity="1.000000" stroke="none" 
	d="
M136.383209,24.916084 
	C157.872055,24.999567 176.847046,40.346565 182.012650,61.848434 
	C182.438370,63.620426 182.704636,65.430717 182.608673,67.685249 
	C153.785828,73.410851 125.399300,78.674431 97.006195,83.475281 
	C96.999443,80.522675 96.980133,78.032646 97.002190,75.542976 
	C97.143776,59.559414 102.699379,45.820354 114.584320,35.037117 
	C120.700699,29.487701 127.153969,24.044973 136.383209,24.916084 
z"/>
<path fill="#444244" opacity="1.000000" stroke="none" 
	d="
M97.012772,83.938011 
	C125.399300,78.674431 153.785828,73.410851 182.560974,68.087311 
	C183.256454,70.478989 183.563324,72.930626 183.952820,76.042397 
	C132.189407,85.734596 80.699326,95.375610 28.531439,105.143539 
	C32.449055,126.215248 36.316303,147.016052 40.365322,168.794540 
	C88.241920,159.851196 135.882584,150.951904 183.905472,141.981216 
	C183.905472,144.473862 183.905472,146.774750 183.424652,149.539246 
	C179.632935,150.691437 176.322006,151.380020 172.689713,152.052094 
	C171.801147,152.304306 171.233963,152.573029 170.512421,152.809570 
	C170.358093,152.777374 170.054871,152.863785 169.614410,152.860321 
	C167.529739,153.043274 165.867294,153.131134 164.244156,153.431458 
	C148.787659,156.291550 133.327316,159.132706 117.889305,162.090103 
	C104.573502,164.640961 91.285309,167.335968 77.709435,169.982208 
	C77.253883,170.034576 77.073799,170.071976 76.893723,170.109375 
	C60.905010,173.002930 44.916298,175.896484 28.646172,178.840973 
	C27.571974,175.072708 26.192682,171.899384 30.724157,168.700577 
	C34.884468,165.763779 33.503853,160.050156 28.757456,157.834259 
	C27.435703,157.217178 25.957930,156.934296 24.377682,156.444107 
	C23.972500,154.758179 23.522333,153.005142 23.133501,151.238617 
	C22.573118,148.692657 22.759476,146.761459 25.242641,144.800003 
	C30.367399,140.751999 29.037018,134.772903 22.877380,132.484512 
	C17.851770,130.617432 16.564407,123.834290 20.568733,120.320244 
	C25.621998,115.885712 24.763641,109.827034 18.415354,108.093315 
	C14.749036,107.092049 14.163591,104.821800 14.137171,102.013542 
	C14.128712,101.114494 15.507328,99.604942 16.476231,99.390373 
	C23.152437,97.911934 29.870501,96.599823 36.610058,95.436790 
	C42.803036,94.368080 49.077320,93.750008 55.247345,92.574265 
	C62.264210,91.237152 69.205162,89.501678 76.948547,87.890198 
	C84.149582,86.540024 90.581177,85.239021 97.012772,83.938011 
z"/>
<path fill="#8F0302" opacity="1.000000" stroke="none" 
	d="
M97.006195,83.475281 
	C90.581177,85.239021 84.149582,86.540024 77.322945,87.816460 
	C76.013176,72.006279 79.001465,57.160126 89.212975,44.731583 
	C101.112434,30.248606 116.619812,23.191605 135.990128,24.725113 
	C127.153969,24.044973 120.700699,29.487701 114.584320,35.037117 
	C102.699379,45.820354 97.143776,59.559414 97.002190,75.542976 
	C96.980133,78.032646 96.999443,80.522675 97.006195,83.475281 
z"/>
<path fill="#AE0505" opacity="1.000000" stroke="none" 
	d="
M170.054871,152.863785 
	C170.054871,152.863785 170.358093,152.777374 170.847809,152.851532 
	C171.895370,152.639999 172.453232,152.354294 173.011093,152.068604 
	C176.322006,151.380020 179.632935,150.691437 183.334564,149.976425 
	C183.764740,159.123367 183.804214,168.296738 183.431274,177.443451 
	C183.018845,177.416794 182.961258,176.988052 182.980087,176.531555 
	C183.039673,166.991959 183.039673,166.991989 174.146484,166.992004 
	C157.303223,166.992020 140.459961,166.992004 123.616692,166.992004 
	C128.686218,165.022232 133.968124,163.524948 139.234894,161.976212 
	C149.512695,158.953949 159.782028,155.902908 170.054871,152.863785 
z"/>
<path fill="#424244" opacity="1.000000" stroke="none" 
	d="
M103.909874,146.963058 
	C100.089226,147.668915 96.687035,148.321564 92.906914,149.046722 
	C90.789574,144.096436 89.137047,139.101074 92.488136,134.417191 
	C95.567245,130.113434 101.097061,130.421387 105.272118,131.123627 
	C112.145226,132.279617 111.583725,139.053299 112.864586,144.849701 
	C109.977951,145.546371 107.153145,146.228119 103.909874,146.963058 
z"/>
<path fill="#454547" opacity="1.000000" stroke="none" 
	d="
M61.883156,133.987091 
	C65.645195,132.026779 67.208626,133.606796 68.054993,137.368652 
	C68.347496,138.668716 70.102852,139.639648 71.189995,140.760925 
	C71.890022,139.200485 72.658348,137.666260 73.270714,136.072159 
	C73.874092,134.501480 74.319489,132.870102 74.834198,131.265366 
	C76.174438,132.596130 78.205254,133.706436 78.714745,135.302414 
	C79.863228,138.900024 80.265099,142.736832 80.958961,146.478485 
	C81.603165,149.952255 80.300362,151.816864 76.493645,151.847092 
	C75.901970,149.350342 75.338684,146.973419 74.684395,144.212463 
	C72.988983,144.575638 71.459053,144.903351 69.623024,145.296661 
	C69.579895,148.725693 72.115562,153.446518 65.455078,153.453598 
	C64.000404,146.680801 62.941780,140.333954 61.883156,133.987091 
z"/>
<path fill="#464647" opacity="1.000000" stroke="none" 
	d="
M120.513626,139.659073 
	C119.017662,141.691330 117.687645,143.352142 116.357628,145.012970 
	C115.936867,144.827820 115.516106,144.642685 115.095352,144.457535 
	C115.396240,137.982513 115.644005,131.503906 116.077774,125.037796 
	C116.122612,124.369408 117.795876,123.191818 117.839111,123.230400 
	C120.086433,125.235832 123.452515,120.054726 125.352516,124.501404 
	C127.732666,130.071808 130.388382,135.524460 132.897675,140.968307 
	C128.703217,143.528305 126.831390,141.365601 125.540871,137.733902 
	C123.751671,138.305756 122.215614,138.796692 120.513626,139.659073 
z"/>
<path fill="#454547" opacity="1.000000" stroke="none" 
	d="
M109.434235,120.922195 
	C108.044327,120.254730 106.342140,119.690224 106.141594,118.790871 
	C104.881950,113.141983 103.956520,107.418556 102.855659,101.362701 
	C104.485832,100.923225 105.996223,100.516037 107.841507,100.018570 
	C108.503845,102.518463 109.108284,104.799820 110.061279,108.396751 
	C111.437027,104.740089 112.336250,102.350014 113.264755,99.882095 
	C114.663391,99.736717 116.153717,99.581795 118.849380,99.301590 
	C113.334976,107.335632 117.420914,112.713722 123.105377,117.566902 
	C116.167641,121.954033 114.952484,114.460739 111.653671,112.688820 
	C111.010597,115.552170 110.413399,118.211266 109.434235,120.922195 
z"/>
<path fill="#444446" opacity="1.000000" stroke="none" 
	d="
M151.066467,137.647415 
	C144.562485,141.755478 142.865799,134.907944 138.938828,131.852234 
	C138.455429,135.611588 141.171265,140.812103 134.322693,140.524902 
	C133.158173,134.250076 131.985764,127.932770 130.825867,121.682938 
	C135.341019,119.534683 135.341019,119.534683 137.993149,127.027443 
	C140.870621,124.190529 139.096146,117.245621 146.835800,118.303482 
	C142.018555,125.850952 144.180847,132.058014 150.882309,137.440155 
	C151.085297,137.712555 151.066467,137.647415 151.066467,137.647415 
z"/>
<path fill="#464648" opacity="1.000000" stroke="none" 
	d="
M180.384003,130.443832 
	C179.674194,131.537140 178.959610,132.698196 178.020538,132.923462 
	C174.669418,133.727280 171.242035,134.213257 167.829132,134.822083 
	C167.539352,134.201660 167.229126,133.780777 167.144058,133.318451 
	C166.039734,127.316299 164.967361,121.308281 163.787689,114.750008 
	C168.136917,113.876808 172.260803,113.048843 176.807526,112.135986 
	C177.163101,113.628639 177.488693,114.995522 177.857727,116.544724 
	C175.134048,117.213341 172.610764,117.832764 170.087463,118.452187 
	C170.033447,119.012596 169.979431,119.572998 169.925400,120.133408 
	C172.156143,120.320541 174.386871,120.507675 176.987411,120.725838 
	C177.189774,121.689728 177.478043,123.062790 177.786194,124.530540 
	C175.604675,125.057007 173.713089,125.513496 171.821503,125.969986 
	C171.703445,126.483131 171.585388,126.996284 171.467316,127.509430 
	C172.743622,127.933800 174.008041,128.399338 175.299210,128.772217 
	C176.946930,129.248047 178.616241,129.649048 180.384003,130.443832 
z"/>
<path fill="#444446" opacity="1.000000" stroke="none" 
	d="
M52.330048,149.472702 
	C52.347729,149.804138 52.440098,150.152084 52.371056,150.464355 
	C51.897907,152.604324 51.390938,154.736801 50.894867,156.871704 
	C49.597046,155.110825 47.789680,153.523224 47.118484,151.549271 
	C46.059933,148.436111 45.807182,145.054596 45.134632,141.802963 
	C44.419960,138.347687 45.554165,136.340256 49.495384,136.132568 
	C50.091854,138.431549 50.689053,140.733337 51.423302,143.563354 
	C54.368843,140.217361 53.018772,133.932678 59.629608,134.458313 
	C59.757217,135.898483 59.606983,137.084061 59.096451,138.086075 
	C56.723591,142.743286 57.147427,146.658234 61.371918,150.201584 
	C62.399628,151.063599 62.291851,153.279373 62.706173,154.872681 
	C57.659943,156.128891 56.516792,151.398300 53.384422,148.753265 
	C52.751286,148.781357 52.540665,149.127029 52.330048,149.472702 
z"/>
<path fill="#454547" opacity="1.000000" stroke="none" 
	d="
M151.463837,137.623093 
	C151.066467,137.647415 151.085297,137.712555 151.092651,137.753174 
	C150.179108,131.273697 149.258194,124.753578 148.330673,118.186775 
	C156.058380,114.594612 160.917114,115.009567 161.791443,119.597488 
	C159.281799,120.189026 156.757492,120.784027 154.233170,121.379028 
	C154.185806,121.946861 154.138443,122.514694 154.091080,123.082520 
	C156.200302,123.302391 158.309525,123.522263 161.098862,123.813026 
	C161.287933,124.383385 161.726501,125.706421 162.079071,126.770020 
	C160.570129,129.324173 155.150726,126.439873 156.191315,132.121414 
	C157.958603,131.845734 159.576019,131.243622 161.072342,131.463974 
	C162.416016,131.661850 163.626602,132.763519 164.895889,133.466492 
	C163.966125,134.305496 163.152878,135.640732 162.084976,135.891525 
	C158.728531,136.679794 155.276321,137.060349 151.463837,137.623093 
z"/>
<path fill="#464648" opacity="1.000000" stroke="none" 
	d="
M130.552826,103.839035 
	C134.540146,102.361786 135.439758,104.041389 135.014099,107.261826 
	C134.898407,107.384163 134.804047,107.537773 134.666901,107.620491 
	C132.843109,108.720520 131.013321,109.810616 129.185028,110.903183 
	C131.929962,111.048286 135.372223,110.188492 137.528870,111.685036 
	C139.154846,112.813332 137.746887,115.986176 134.289383,116.153542 
	C132.321289,116.248802 130.350739,117.185669 128.429428,117.051880 
	C127.071960,116.957375 124.873611,115.923119 124.635307,114.928665 
	C123.299797,109.355362 122.445923,103.666656 121.335251,97.505005 
	C126.092438,96.797432 130.051910,96.208511 134.451462,95.554131 
	C134.696060,96.650475 134.998352,98.005493 135.341980,99.545738 
	C132.669922,100.178711 130.282349,100.744301 126.558655,101.626396 
	C128.323669,102.744118 129.229507,103.317749 130.552826,103.839035 
z"/>
<path fill="#454547" opacity="1.000000" stroke="none" 
	d="
M94.183441,108.693268 
	C93.290665,117.093422 95.173561,119.010429 102.589943,117.632957 
	C104.941498,120.730911 103.614258,122.330513 100.285530,122.863159 
	C96.390182,123.486465 92.649010,123.353416 90.106369,119.579842 
	C87.554169,115.792068 87.170097,109.018944 89.447212,105.911049 
	C92.319572,101.990738 96.151833,101.940086 101.771347,103.863930 
	C98.756149,105.664719 96.542900,106.986557 94.183441,108.693268 
z"/>
<path fill="#464647" opacity="1.000000" stroke="none" 
	d="
M153.683380,95.142807 
	C152.232010,96.298958 150.702087,97.071426 148.793503,98.035072 
	C149.286972,101.006821 149.481277,104.336548 150.442673,107.427696 
	C151.684448,111.420456 150.119934,113.133614 146.151031,114.046898 
	C145.114227,108.941086 144.108215,103.986969 143.118668,99.113953 
	C137.720306,99.087448 137.720306,99.087448 137.237579,95.052521 
	C141.209747,94.144989 145.149002,92.959099 149.172211,92.483589 
	C150.540970,92.321815 152.121216,93.949242 153.683380,95.142807 
z"/>
<path fill="#464648" opacity="1.000000" stroke="none" 
	d="
M63.949486,108.278137 
	C68.258545,107.964500 72.211319,107.743935 76.164093,107.523369 
	C76.308075,107.937370 76.452057,108.351372 76.596031,108.765373 
	C66.948502,113.722519 75.551384,121.030952 73.608459,127.430962 
	C72.523354,127.673866 71.128616,127.986084 69.164444,128.425766 
	C68.083466,123.258858 67.048820,118.313377 65.951385,113.067802 
	C64.182510,113.278748 62.610752,113.466187 61.087147,113.647881 
	C58.955849,110.345848 60.630234,109.037201 63.949486,108.278137 
z"/>
<path fill="#464647" opacity="1.000000" stroke="none" 
	d="
M79.611259,113.558990 
	C79.080948,110.899895 78.653053,108.648964 78.172928,106.123329 
	C81.369209,104.624580 83.570007,104.338379 84.227425,108.826797 
	C84.988228,114.021080 86.189896,119.150795 87.268532,124.657585 
	C85.548988,125.144669 84.044479,125.570839 81.986542,126.153778 
	C81.200943,121.941582 80.457306,117.954361 79.611259,113.558990 
z"/>
<path fill="#800000" opacity="1.000000" stroke="none" 
	d="
M182.961258,176.988052 
	C182.961258,176.988052 183.018845,177.416794 183.051849,177.630615 
	C156.667786,177.919617 130.250717,178.000900 103.833611,178.066513 
	C95.051834,178.088318 86.269958,178.069946 76.953941,178.069946 
	C76.953941,175.531708 76.953941,173.266815 76.923828,170.555634 
	C77.073799,170.071976 77.253883,170.034576 77.713898,170.431335 
	C78.095909,172.779922 78.197983,174.694351 78.320274,176.988052 
	C113.572983,176.988052 148.267120,176.988052 182.961258,176.988052 
z"/>
<path fill="#464648" opacity="1.000000" stroke="none" 
	d="
M83.275589,144.718811 
	C82.433090,140.100159 81.700409,135.893082 80.972221,131.711823 
	C86.158546,129.840225 86.139236,129.846329 87.075981,135.125259 
	C87.907104,139.808960 88.796616,144.482285 89.740585,149.594681 
	C87.748283,149.848907 86.203667,150.046021 84.522285,150.260574 
	C84.087914,148.300461 83.736664,146.715424 83.275589,144.718811 
z"/>
<path fill="#F0F0F0" opacity="1.000000" stroke="none" 
	d="
M63.056427,154.908142 
	C62.291851,153.279373 62.399628,151.063599 61.371918,150.201584 
	C57.147427,146.658234 56.723591,142.743286 59.096451,138.086075 
	C59.606983,137.084061 59.757217,135.898483 60.000427,134.413940 
	C60.361877,134.009445 60.796326,133.988434 61.556965,133.977264 
	C62.941780,140.333954 64.000404,146.680801 65.059593,153.443298 
	C64.508995,154.220505 63.957840,154.582062 63.056427,154.908142 
z"/>
<path fill="#FCC511" opacity="1.000000" stroke="none" 
	d="
M50.000961,116.516937 
	C52.242443,117.153389 54.391518,118.117622 56.550919,119.086494 
	C56.263649,120.980270 55.937275,123.131790 55.589100,125.427055 
	C53.856590,125.766434 51.722015,126.184570 49.661564,126.588188 
	C48.576069,124.877037 47.342819,122.932976 46.187412,121.111610 
	C47.300129,119.835701 48.604336,118.340202 50.000961,116.516937 
z"/>
<path fill="#FBC40C" opacity="1.000000" stroke="none" 
	d="
M159.177338,100.246140 
	C160.563065,98.236328 162.218353,96.440033 163.718918,94.811630 
	C165.389175,95.662613 167.470245,96.722916 169.547302,97.781166 
	C169.301422,99.649292 169.002197,101.922768 168.707794,104.159508 
	C166.855576,104.463333 164.593750,104.834358 162.681870,105.147972 
	C161.702423,103.728485 160.574661,102.094070 159.177338,100.246140 
z"/>
<path fill="#8F0201" opacity="1.000000" stroke="none" 
	d="
M182.980087,176.531555 
	C148.267120,176.988052 113.572983,176.988052 78.320274,176.988052 
	C78.197983,174.694351 78.095909,172.779922 77.989372,170.416367 
	C91.285309,167.335968 104.573502,164.640961 117.889305,162.090103 
	C133.327316,159.132706 148.787659,156.291550 164.244156,153.431458 
	C165.867294,153.131134 167.529739,153.043274 169.614410,152.860321 
	C159.782028,155.902908 149.512695,158.953949 139.234894,161.976212 
	C133.968124,163.524948 128.686218,165.022232 123.616692,166.992004 
	C140.459961,166.992004 157.303223,166.992020 174.146484,166.992004 
	C183.039673,166.991989 183.039673,166.991959 182.980087,176.531555 
z"/>
<path fill="#8F0201" opacity="1.000000" stroke="none" 
	d="
M172.689713,152.052094 
	C172.453232,152.354294 171.895370,152.639999 171.002136,152.883728 
	C171.233963,152.573029 171.801147,152.304306 172.689713,152.052094 
z"/>
<path fill="#FEFEFE" opacity="1.000000" stroke="none" 
	d="
M52.552795,149.323807 
	C52.540665,149.127029 52.751286,148.781357 53.067657,148.625824 
	C53.040787,148.935608 52.908165,149.055267 52.552795,149.323807 
z"/>
</svg>