<?xml version="1.0" encoding="UTF-8"?>
<svg version="1.1" xmlns="http://www.w3.org/2000/svg" width="776" height="245">
<path d="M0 0 C14.90834862 13.9398929 23.89017115 34.04851972 25.01171875 54.296875 C25.76334037 76.7867234 18.30441658 97.0772857 3.671875 114.04296875 C2.37552393 115.41260283 1.06383633 116.76795008 -0.265625 118.10546875 C-0.83152344 118.70617187 -1.39742187 119.306875 -1.98046875 119.92578125 C-16.52813125 134.12328119 -39.66785095 139.49543148 -59.26171875 139.3203125 C-82.58835273 138.40676639 -101.84590193 127.22413573 -117.515625 110.73828125 C-132.48622643 93.37004443 -136.64913927 72.22497993 -135.484375 49.890625 C-134.17310242 33.19531514 -126.5204627 17.37173546 -115.265625 5.10546875 C-114.60175781 4.35007812 -113.93789063 3.5946875 -113.25390625 2.81640625 C-82.89575302 -29.8424573 -32.62229251 -27.27898598 0 0 Z " fill="#52A7DC" transform="translate(631.265625,67.89453125)"/>
<path d="M0 0 C-0.66 0.33 -1.32 0.66 -2 1 C-2.53625 0.71511719 -3.0725 0.43023437 -3.625 0.13671875 C-6.95852001 -1.45876533 -10.37169176 -1.76354007 -14 -2.1875 C-15.06734375 -2.32961914 -15.06734375 -2.32961914 -16.15625 -2.47460938 C-19.74862436 -2.91360288 -22.52590773 -2.91027898 -26 -2 C-26.99 -2.99 -26.99 -2.99 -28 -4 C-30.32275177 -4.40047444 -32.65739357 -4.7397104 -35 -5 C-35.495 -6.485 -35.495 -6.485 -36 -8 C-42.26182227 -7.38682161 -42.26182227 -7.38682161 -48 -5 C-48.99 -5 -49.98 -5 -51 -5 C-51.33 -4.34 -51.66 -3.68 -52 -3 C-53.1446875 -3.309375 -53.1446875 -3.309375 -54.3125 -3.625 C-57.21885944 -4.33391203 -57.21885944 -4.33391203 -60 -2 C-60.66 -1.01 -61.32 -0.02 -62 1 C-62.99 0.67 -63.98 0.34 -65 0 C-66.87755022 0.03578908 -68.75440187 0.14715689 -70.625 0.3125 C-71.60726562 0.39113281 -72.58953125 0.46976563 -73.6015625 0.55078125 C-74.39304687 0.69902344 -75.18453125 0.84726562 -76 1 C-76.33 1.66 -76.66 2.32 -77 3 C-78.32 3 -79.64 3 -81 3 C-81 3.66 -81 4.32 -81 5 C-82.32 5.33 -83.64 5.66 -85 6 C-84.25 4.0625 -84.25 4.0625 -83 2 C-80.875 1.25 -80.875 1.25 -79 1 C-79 0.34 -79 -0.32 -79 -1 C-81.31 -1 -83.62 -1 -86 -1 C-86.04125 -0.2575 -86.0825 0.485 -86.125 1.25 C-87.34857383 5.09551776 -89.59346582 6.04305483 -93 8 C-92.67 8.33 -92.34 8.66 -92 9 C-92 9.66 -92 10.32 -92 11 C-95.75 13 -95.75 13 -98 13 C-104.66257729 18.97698227 -109.87775564 27.47283611 -113.06640625 35.77734375 C-114 38 -114 38 -116.125 39.375 C-118.41427756 40.97841024 -118.41427756 40.97841024 -118.3125 44.5625 C-118.22353201 47.85660211 -118.22353201 47.85660211 -117 50 C-116.00226563 49.84144531 -115.00453125 49.68289062 -113.9765625 49.51953125 C-110.10704761 48.97133375 -106.28510959 48.76315385 -102.375 48.6875 C-101.10398437 48.65011719 -99.83296875 48.61273438 -98.5234375 48.57421875 C-94.43886011 49.06780959 -92.79747927 50.02566859 -90 53 C-90 53.99 -90 54.98 -90 56 C-91.2065625 56.04898438 -92.413125 56.09796875 -93.65625 56.1484375 C-95.27085306 56.22353532 -96.88543539 56.29908003 -98.5 56.375 C-99.29148437 56.4059375 -100.08296875 56.436875 -100.8984375 56.46875 C-110.61561915 56.945455 -110.61561915 56.945455 -118.9375 61.5 C-122.09073465 65.3221026 -122.15966114 67.39615717 -122.1875 72.3125 C-122.20167969 73.44300781 -122.21585937 74.57351562 -122.23046875 75.73828125 C-122.00218563 78.96906777 -121.5003876 81.14408981 -120 84 C-117.6859613 85.27587495 -117.6859613 85.27587495 -115 86 C-113.93809448 86.51409424 -113.93809448 86.51409424 -112.85473633 87.03857422 C-109.0994045 88.30330498 -105.5499842 88.24834864 -101.63671875 88.1953125 C-100.84473587 88.1924826 -100.05275299 88.18965271 -99.23677063 88.18673706 C-96.72019001 88.17558863 -94.20397211 88.15049422 -91.6875 88.125 C-89.97591662 88.11496329 -88.26432763 88.10583864 -86.55273438 88.09765625 C-82.36823918 88.07737271 -78.18452312 88.03821482 -74 88 C-73.67 80.08 -73.34 72.16 -73 64 C-72.01 64.33 -71.02 64.66 -70 65 C-69.375 66.85546875 -69.375 66.85546875 -69 69.1875 C-68.19367462 73.43595388 -67.16442251 77.83557749 -64 81 C-64 83.64 -64 86.28 -64 89 C-58.39 89 -52.78 89 -47 89 C-47 81.08 -47 73.16 -47 65 C-46.01 65.99 -45.02 66.98 -44 68 C-44 68.99 -44 69.98 -44 71 C-42.68 70.67 -41.36 70.34 -40 70 C-39.67 71.65 -39.34 73.3 -39 75 C-38.236875 75.0825 -37.47375 75.165 -36.6875 75.25 C-33.47626739 76.14615794 -32.70625501 77.21611025 -31 80 C-30.01 79.34 -29.02 78.68 -28 78 C-27.58333333 75 -27.58333333 75 -28 72 C-28.66 71.34 -29.32 70.68 -30 70 C-30.125 67.375 -30.125 67.375 -30 65 C-28.68 64.67 -27.36 64.34 -26 64 C-25.67 65.32 -25.34 66.64 -25 68 C-25 66.68 -25 65.36 -25 64 C-24.01 64 -23.02 64 -22 64 C-22.05220703 65.30324219 -22.05220703 65.30324219 -22.10546875 66.6328125 C-22.54476133 75.33287883 -22.54476133 75.33287883 -19 83 C-12.91716725 87.8927133 -7.63806897 88.1520358 -0.07421875 88.09765625 C0.67337204 88.0962413 1.42096283 88.09482635 2.19120789 88.09336853 C4.56501365 88.08779764 6.93872303 88.0752506 9.3125 88.0625 C10.92773301 88.05748123 12.5429675 88.05291899 14.15820312 88.04882812 C18.10550555 88.03783775 22.05273647 88.02059332 26 88 C26.09948577 83.01958936 26.17175686 78.03976748 26.21972656 73.05859375 C26.2397406 71.36708489 26.26696073 69.67564433 26.30175781 67.984375 C26.35073065 65.54149446 26.37307033 63.09953489 26.390625 60.65625 C26.41127014 59.91008423 26.43191528 59.16391846 26.45318604 58.3951416 C26.45551881 52.83473271 25.05435373 48.66114967 22 44 C16.8023104 38.93558449 10.85773372 37.62725885 4 36 C4.99 34.68 5.98 33.36 7 32 C6.01 32 5.02 32 4 32 C3.34 32.99 2.68 33.98 2 35 C-0.625 35.1875 -0.625 35.1875 -3 35 C-2.67 34.13375 -2.34 33.2675 -2 32.375 C-1.01268659 29.04281725 -0.83579026 26.44840462 -1 23 C0.485 23.99 0.485 23.99 2 25 C0.33630748 22.39859044 0.33630748 22.39859044 -2 20 C-4.66928121 19.58129447 -4.66928121 19.58129447 -7 20 C-8.43088528 17.13822943 -7.59991697 15.06624227 -7 12 C-4.69 12 -2.38 12 0 12 C0 11.01 0 10.02 0 9 C0.99 9 1.98 9 3 9 C3.26554688 9.61488281 3.53109375 10.22976562 3.8046875 10.86328125 C4.33449219 12.07564453 4.33449219 12.07564453 4.875 13.3125 C5.22304688 14.11300781 5.57109375 14.91351563 5.9296875 15.73828125 C7.02571894 18.1961834 7.02571894 18.1961834 9 21 C8.60610782 18.16397629 8.27283051 16.35240608 6.5 14.0625 C4.5995605 11.44939569 4.49033418 9.15214832 4 6 C3.34 5.67 2.68 5.34 2 5 C2.33 4.01 2.66 3.02 3 2 C16.85890952 13.75735357 27.57853168 28.08141787 32 46 C32.20238281 46.78761719 32.40476562 47.57523438 32.61328125 48.38671875 C37.17848403 69.16304978 33.04919557 91.37016528 21.6875 109.25 C17.93020194 114.95497779 13.81596975 120.15484256 9 125 C8.43410156 125.60070312 7.86820313 126.20140625 7.28515625 126.8203125 C-7.26250625 141.01781244 -30.40222595 146.38996273 -49.99609375 146.21484375 C-73.32272773 145.30129764 -92.58027693 134.11866698 -108.25 117.6328125 C-123.22060143 100.26457568 -127.38351427 79.11951118 -126.21875 56.78515625 C-124.90747742 40.08984639 -117.2548377 24.26626671 -106 12 C-105.33613281 11.24460937 -104.67226563 10.48921875 -103.98828125 9.7109375 C-77.52113505 -18.76203679 -31.41528827 -22.02458576 0 0 Z " fill="#0276B7" transform="translate(622,61)"/>
<path d="M0 0 C0.87527344 -0.00257812 1.75054687 -0.00515625 2.65234375 -0.0078125 C5.0625 0.125 5.0625 0.125 8.0625 1.125 C8.16439485 8.7746231 8.23417286 16.42406945 8.28222656 24.07421875 C8.3022713 26.67356914 8.32951447 29.27287483 8.36425781 31.87207031 C8.41308865 35.6205553 8.43554126 39.36844111 8.453125 43.1171875 C8.47377014 44.26863251 8.49441528 45.42007751 8.51568604 46.60641479 C8.51793007 54.77955762 7.34241937 61.96592699 2.16796875 68.52734375 C-6.09230424 75.13892681 -13.96617632 77.7716413 -24.5859375 76.91015625 C-32.77321382 75.58759623 -39.49495561 71.79221438 -44.6796875 65.26171875 C-49.13569066 57.69204879 -49.9395638 48.56579984 -47.9375 40.125 C-45.55853227 33.33216238 -42.16864023 27.90107098 -35.9375 24.125 C-27.88595783 20.37046881 -21.15555177 20.41392131 -12.85546875 23.37109375 C-10.9375 24.125 -10.9375 24.125 -8.9375 25.125 C-8.95321045 24.24763184 -8.95321045 24.24763184 -8.96923828 23.35253906 C-9.01090264 20.69340337 -9.03685901 18.03433647 -9.0625 15.375 C-9.07925781 14.45460938 -9.09601563 13.53421875 -9.11328125 12.5859375 C-9.12294922 11.25175781 -9.12294922 11.25175781 -9.1328125 9.890625 C-9.14852295 8.66520996 -9.14852295 8.66520996 -9.16455078 7.41503906 C-8.91189781 4.86677581 -8.29884735 3.28380181 -6.9375 1.125 C-4.46371876 -0.11189062 -2.75834683 -0.00810087 0 0 Z M-27.9375 40.125 C-30.52499335 43.63063615 -31.18458401 46.42076953 -31 50.6875 C-30.42699331 54.2582364 -29.84622653 55.23681 -27.4375 58.1875 C-24.12919363 60.47541308 -21.02212439 60.83888361 -17.05859375 60.625 C-13.63219341 59.81730342 -12.01462151 57.85122198 -9.9375 55.125 C-8.3300093 51.91001861 -8.46435451 48.61201742 -8.9375 45.125 C-10.5924151 41.93337802 -11.9409738 39.83221214 -14.875 37.75 C-19.98972237 36.20008413 -23.49221633 37.22590196 -27.9375 40.125 Z " fill="#859CAA" transform="translate(419.9375,74.875)"/>
<path d="M0 0 C1.28583984 -0.01160156 1.28583984 -0.01160156 2.59765625 -0.0234375 C5.44514836 0.46144429 6.08841325 1.2130818 7.9375 3.375 C9.16107432 6.09257497 10.27506629 8.77875858 11.3359375 11.55859375 C11.65277496 12.36933853 11.96961243 13.18008331 12.29605103 14.01539612 C13.30898309 16.6116046 14.31107597 19.2118336 15.3125 21.8125 C16.3065677 24.37381985 17.30287422 26.93425928 18.29962158 29.49453735 C18.9446744 31.15156101 19.58885115 32.80892599 20.2321167 34.46664429 C22.70019633 40.81312325 25.26744764 47.11040347 27.9375 53.375 C31.06418256 46.81080586 33.86632297 40.14428612 36.53125 33.3828125 C36.84787598 32.58341248 37.16450195 31.78401245 37.49072266 30.96038818 C38.80991854 27.6284267 40.12801947 24.29624375 41.42626953 20.95605469 C42.38694294 18.48929329 43.36390479 16.02951029 44.34375 13.5703125 C44.77367249 12.44678879 44.77367249 12.44678879 45.21228027 11.30056763 C47.05952251 6.71241909 49.04661751 3.60862036 52.9375 0.375 C55.47265625 -0.18359375 55.47265625 -0.18359375 58 -0.0625 C58.83660156 -0.04058594 59.67320312 -0.01867187 60.53515625 0.00390625 C63.02914559 0.38915664 64.76139562 1.12361434 66.9375 2.375 C66.3972521 7.10392796 65.46246012 11.09735055 63.63671875 15.48828125 C63.15992676 16.64150879 62.68313477 17.79473633 62.19189453 18.98291016 C61.67021752 20.21803598 61.14790412 21.45289318 60.625 22.6875 C60.08700921 23.97181413 59.54908705 25.25615701 59.01123047 26.54052734 C55.34070027 35.25996906 51.51284965 43.9035112 47.5625 52.5 C47.08772217 53.53423096 46.61294434 54.56846191 46.1237793 55.6340332 C42.98541384 62.36975624 39.55178022 68.88208952 35.9375 75.375 C30.6575 75.375 25.3775 75.375 19.9375 75.375 C10.08272561 59.01235572 2.53710515 41.56966847 -4.75 23.9375 C-5.18425293 22.91422607 -5.61850586 21.89095215 -6.06591797 20.83666992 C-8.5244632 14.7555602 -9.92351929 9.94593669 -9.0625 3.375 C-6.46524682 0.22937086 -3.9602935 -0.03583976 0 0 Z " fill="#869CAA" transform="translate(75.0625,74.625)"/>
<path d="M0 0 C0.85722656 0.02449219 1.71445312 0.04898438 2.59765625 0.07421875 C4.9375 0.3125 4.9375 0.3125 7.9375 1.3125 C8.2675 8.9025 8.5975 16.4925 8.9375 24.3125 C11.2475 23.3225 13.5575 22.3325 15.9375 21.3125 C22.39619916 20.30517995 29.16766625 21.17935892 34.9375 24.3125 C39.66620485 28.3222797 42.56368496 33.01105542 43.11161804 39.3160553 C43.1678512 41.61697871 43.1624994 43.90952211 43.1328125 46.2109375 C43.1299826 47.04589752 43.12715271 47.88085754 43.12423706 48.74111938 C43.11310301 51.39006291 43.08801127 54.03865984 43.0625 56.6875 C43.05246143 58.49088051 43.04333712 60.29426636 43.03515625 62.09765625 C43.0148932 66.50284293 42.97573232 70.90728659 42.9375 75.3125 C37.3275 75.3125 31.7175 75.3125 25.9375 75.3125 C25.87691406 73.03730469 25.81632812 70.76210937 25.75390625 68.41796875 C25.69209275 66.2137528 25.62871506 64.009587 25.56518555 61.80541992 C25.52188167 60.27388982 25.48020333 58.74231285 25.44018555 57.21069336 C25.38237268 55.00880818 25.31871031 52.80715789 25.25390625 50.60546875 C25.23719376 49.92099167 25.22048126 49.23651459 25.20326233 48.53129578 C25.1101445 45.54129896 24.89062563 43.17187689 23.9375 40.3125 C19.78179886 37.86796992 16.54211691 38.26994523 11.9375 39.3125 C8.27404939 42.97595061 8.76930107 47.26892105 8.62109375 52.265625 C8.60031265 52.92584656 8.57953156 53.58606812 8.55812073 54.26629639 C8.49299853 56.36493015 8.43391498 58.46368372 8.375 60.5625 C8.33177921 61.98959547 8.2881638 63.41667905 8.24414062 64.84375 C8.13661649 68.33321259 8.03726715 71.82277257 7.9375 75.3125 C2.3275 75.3125 -3.2825 75.3125 -9.0625 75.3125 C-9.15286614 66.12434866 -9.2262531 56.93649242 -9.26974869 47.74799728 C-9.29062433 43.48140708 -9.31894109 39.21513664 -9.36425781 34.94873047 C-9.4077171 30.83143216 -9.43163728 26.71444143 -9.44200897 22.59693146 C-9.44940027 21.0260153 -9.46383388 19.45511598 -9.48542023 17.88433075 C-9.51445682 15.68391031 -9.51845612 13.48476087 -9.51660156 11.28417969 C-9.52548401 10.03175476 -9.53436646 8.77932983 -9.54351807 7.48895264 C-8.67397161 1.74681249 -5.59229901 -0.24461036 0 0 Z " fill="#859BAA" transform="translate(446.0625,74.6875)"/>
<path d="M0 0 C15.61928606 9.52395492 25.07417816 26.57396872 30.09765625 43.75390625 C34.86659057 64.67067399 32.09653629 86.98529473 20.84204102 105.43310547 C16.79365874 111.80402128 12.32674895 117.64096773 7 123 C6.43410156 123.60070312 5.86820313 124.20140625 5.28515625 124.8203125 C-9.26250625 139.01781244 -32.40222595 144.38996273 -51.99609375 144.21484375 C-75.32272773 143.30129764 -94.58027693 132.11866698 -110.25 115.6328125 C-118.9310478 105.56144063 -124.62994224 93.0353177 -127 80 C-126.01 79.505 -126.01 79.505 -125 79 C-125 79.66 -125 80.32 -125 81 C-124.34 81 -123.68 81 -123 81 C-122.87625 81.53625 -122.7525 82.0725 -122.625 82.625 C-118.49261684 98.32805602 -109.76309363 114.90126103 -95.52734375 123.4921875 C-92.69090622 125.00666546 -89.84978246 126.51075885 -87 128 C-85.51693359 128.79857422 -85.51693359 128.79857422 -84.00390625 129.61328125 C-83.01261719 130.13277344 -82.02132812 130.65226563 -81 131.1875 C-79.6696875 131.88939453 -79.6696875 131.88939453 -78.3125 132.60546875 C-69.06086348 136.50032045 -60.36784337 137.54998476 -50.375 137.5 C-49.14894043 137.49863037 -47.92288086 137.49726074 -46.65966797 137.49584961 C-37.99779233 137.35036296 -30.43055402 136.18702255 -22.3203125 133.19140625 C-19.18761031 132.06731899 -16.2908582 131.43777471 -13 131 C-13 130.01 -13 129.02 -13 128 C-12.154375 127.62875 -11.30875 127.2575 -10.4375 126.875 C-5.3515932 124.10086902 -1.22380225 120.83570338 2 116 C1.938125 114.72125 1.87625 113.4425 1.8125 112.125 C1.68449612 108.44657285 1.81969961 108.19833043 4.5 105.25 C5.325 104.5075 6.15 103.765 7 103 C7 101.68 7 100.36 7 99 C7.33 98.01 7.66 97.02 8 96 C9.65 96 11.3 96 13 96 C13.99 93.03 14.98 90.06 16 87 C18.64 86.67 21.28 86.34 24 86 C24.09948577 81.01958936 24.17175686 76.03976748 24.21972656 71.05859375 C24.2397406 69.36708489 24.26696073 67.67564433 24.30175781 65.984375 C24.35073065 63.54149446 24.37307033 61.09953489 24.390625 58.65625 C24.41127014 57.91008423 24.43191528 57.16391846 24.45318604 56.3951416 C24.45551881 50.83473271 23.05435373 46.66114967 20 42 C14.8023104 36.93558449 8.85773372 35.62725885 2 34 C2.99 32.68 3.98 31.36 5 30 C4.01 30 3.02 30 2 30 C1.01 31.485 1.01 31.485 0 33 C-2.625 33.1875 -2.625 33.1875 -5 33 C-4.67 32.13375 -4.34 31.2675 -4 30.375 C-3.01268659 27.04281725 -2.83579026 24.44840462 -3 21 C-2.01 21.66 -1.02 22.32 0 23 C-1.66369252 20.39859044 -1.66369252 20.39859044 -4 18 C-6.66928121 17.58129447 -6.66928121 17.58129447 -9 18 C-10.43088528 15.13822943 -9.59991697 13.06624227 -9 10 C-6.69 10 -4.38 10 -2 10 C-2 9.01 -2 8.02 -2 7 C-1.01 7 -0.02 7 1 7 C1.26554688 7.61488281 1.53109375 8.22976562 1.8046875 8.86328125 C2.33449219 10.07564453 2.33449219 10.07564453 2.875 11.3125 C3.39707031 12.51326172 3.39707031 12.51326172 3.9296875 13.73828125 C5.02571894 16.1961834 5.02571894 16.1961834 7 19 C6.60610782 16.16397629 6.27283051 14.35240608 4.5 12.0625 C2.5995605 9.44939569 2.49033418 7.15214832 2 4 C1.01 3.505 1.01 3.505 0 3 C0 2.01 0 1.02 0 0 Z " fill="#055997" transform="translate(624,63)"/>
<path d="M0 0 C6.01729264 3.29248088 9.92176916 7.43173657 12 14 C12.17710704 16.81164101 12.2570761 19.51941807 12.23046875 22.328125 C12.23001053 23.11773621 12.22955231 23.90734741 12.2290802 24.72088623 C12.22607001 26.38164787 12.2182208 28.042407 12.20581055 29.703125 C12.18746183 32.25530897 12.18530166 34.8071317 12.18554688 37.359375 C12.18063473 38.97396149 12.17480773 40.58854552 12.16796875 42.203125 C12.16685593 42.9697345 12.1657431 43.73634399 12.16459656 44.52618408 C12.11607994 49.88392006 12.11607994 49.88392006 11 51 C8.58417669 51.12590362 6.19856612 51.18866196 3.78125 51.203125 C3.04934448 51.20882507 2.31743896 51.21452515 1.56335449 51.22039795 C0.0064438 51.22986861 -1.55048712 51.23639009 -3.10742188 51.24023438 C-5.4626117 51.24984739 -7.81689375 51.28080976 -10.171875 51.3125 C-28.1149429 51.44152494 -28.1149429 51.44152494 -33.59960938 46.58300781 C-38.06180024 41.53892734 -38.30035175 37.09927048 -38.20703125 30.66015625 C-37.94083441 27.23977797 -37.36198728 25.51437356 -35 23 C-30.32263681 19.76012431 -26.03804048 17.86599974 -20.33203125 17.90234375 C-19.43935547 17.90556641 -18.54667969 17.90878906 -17.62695312 17.91210938 C-16.23379883 17.92467773 -16.23379883 17.92467773 -14.8125 17.9375 C-13.87212891 17.94201172 -12.93175781 17.94652344 -11.96289062 17.95117188 C-9.64186288 17.96295374 -7.32096356 17.97940442 -5 18 C-5.78130071 15.50447516 -5.78130071 15.50447516 -7 13 C-10.57498516 11.80833828 -13.48138414 11.8674928 -17.25 11.875 C-18.53390625 11.87242188 -19.8178125 11.86984375 -21.140625 11.8671875 C-24.86641645 11.995403 -28.32879946 12.40081442 -32 13 C-34.09412209 9.5970516 -34.57805215 6.96378615 -34 3 C-26.40819652 -4.59180348 -9.69941583 -3.7484642 0 0 Z " fill="#F8FBFC" transform="translate(637,99)"/>
<path d="M0 0 C3.71597529 3.13240412 5.75598837 6.72613698 6.69140625 11.42578125 C6.77504599 14.2626975 6.80762304 17.07396114 6.7890625 19.91015625 C6.78764755 20.72575012 6.7862326 21.54134399 6.78477478 22.38165283 C6.77918928 24.97973337 6.76663946 27.57772688 6.75390625 30.17578125 C6.74888937 31.94010292 6.74432679 33.70442594 6.74023438 35.46875 C6.7292246 39.78779381 6.71196994 44.10677279 6.69140625 48.42578125 C-0.08451929 49.70230295 -6.74544295 49.64834723 -13.62109375 49.67578125 C-14.90177734 49.69640625 -16.18246094 49.71703125 -17.50195312 49.73828125 C-26.03012945 49.77339469 -33.4865277 49.59728286 -40.24609375 43.98828125 C-43.9971093 39.32792859 -44.77525588 35.94667197 -44.609375 30.02734375 C-44.12704502 25.85550261 -43.07681788 22.63070384 -40.30859375 19.42578125 C-31.56571043 13.60281842 -21.38402261 14.28942206 -11.30859375 14.42578125 C-13.58274662 11.05489858 -13.58274662 11.05489858 -17.30859375 9.42578125 C-24.29198021 8.93350975 -30.55839173 9.65523646 -37.30859375 11.42578125 C-39.68322925 8.29126239 -40.3214362 6.79821221 -40.18359375 2.80078125 C-39.29615087 -0.62221273 -38.94434837 -1.45468336 -36.30859375 -3.57421875 C-25.12556899 -7.93093881 -9.90240887 -6.78164971 0 0 Z M-26.30859375 28.42578125 C-27.38884033 30.82688342 -27.38884033 30.82688342 -27.30859375 33.42578125 C-25.49542226 35.96422134 -24.323923 36.4206715 -21.30859375 37.42578125 C-19.60226727 37.51845713 -17.89242788 37.55576327 -16.18359375 37.55078125 C-15.29414062 37.55335938 -14.4046875 37.5559375 -13.48828125 37.55859375 C-11.33068287 37.6688011 -11.33068287 37.6688011 -10.30859375 36.42578125 C-10.21068805 34.92840001 -10.17884511 33.42635233 -10.18359375 31.92578125 C-10.18101562 31.11109375 -10.1784375 30.29640625 -10.17578125 29.45703125 C-10.08407595 27.43047748 -10.08407595 27.43047748 -11.30859375 26.42578125 C-13.07607104 26.3001589 -14.84919667 26.25001567 -16.62109375 26.23828125 C-17.58660156 26.22410156 -18.55210937 26.20992187 -19.546875 26.1953125 C-22.36164604 26.43020853 -23.97403115 26.86226685 -26.30859375 28.42578125 Z " fill="#869CAA" transform="translate(702.30859375,101.57421875)"/>
<path d="M0 0 C5.82903738 2.18588902 9.2324 5.21819649 12.28259277 10.70046997 C13.79954951 14.39114153 13.61509549 18.02869961 13.515625 21.96484375 C13.50996521 22.82058487 13.50430542 23.67632599 13.49847412 24.55799866 C13.47623507 27.26842211 13.42606425 29.97748191 13.375 32.6875 C13.35491878 34.534486 13.33667086 36.3814929 13.3203125 38.22851562 C13.27641147 42.7361957 13.20747269 47.24286733 13.125 51.75 C8.18124332 51.87468733 3.23842493 51.9648439 -1.70654297 52.0246582 C-3.38443977 52.04962211 -5.06222986 52.08360619 -6.73974609 52.12719727 C-25.52662288 52.60274358 -25.52662288 52.60274358 -32.875 46.75 C-36.79386895 42.24731445 -36.3689333 37.58265787 -36.2265625 31.85546875 C-35.77058088 27.82763109 -34.70066042 25.65202962 -31.875 22.75 C-25.81558756 18.12571156 -18.77661603 18.61206459 -11.5 18.6875 C-10.66855469 18.69201172 -9.83710937 18.69652344 -8.98046875 18.70117188 C-6.94528103 18.71286836 -4.91013077 18.73080065 -2.875 18.75 C-4.74066488 15.12206002 -4.74066488 15.12206002 -7.875 12.75 C-10.26917312 12.65156967 -12.66630905 12.62026912 -15.0625 12.625 C-16.35542969 12.62242188 -17.64835938 12.61984375 -18.98046875 12.6171875 C-22.71981562 12.74470785 -26.19101375 13.14794777 -29.875 13.75 C-32.36336965 10.01744552 -32.41726552 8.16559065 -31.875 3.75 C-24.21227644 -3.91272356 -9.90359091 -2.7693932 0 0 Z " fill="#FAFCFE" transform="translate(534.875,98.25)"/>
<path d="M0 0 C4.37270551 3.93543496 6.68667645 8.39091193 7.5 14.25 C7.64239176 17.56353558 7.64155263 20.87135711 7.625 24.1875 C7.62306641 25.11522217 7.62113281 26.04294434 7.61914062 26.9987793 C7.57271143 34.45130991 7.19855694 41.82783248 6.5 49.25 C-0.25427623 50.5156306 -6.89628259 50.51104567 -13.75 50.5625 C-15.02230469 50.59150391 -16.29460937 50.62050781 -17.60546875 50.65039062 C-26.45573724 50.70975775 -33.99614817 49.87505147 -41.0625 44.1875 C-44.83746526 39.09950334 -44.01161529 32.270748 -43.5 26.25 C-41.37978847 21.21449762 -38.40382405 19.13866348 -33.55859375 16.99609375 C-26.93035856 14.59383014 -19.46812313 14.89049137 -12.5 15.25 C-11.84 15.58 -11.18 15.91 -10.5 16.25 C-12.53802135 12.18975679 -12.53802135 12.18975679 -16.5 10.25 C-23.49873444 9.80415469 -29.79868209 10.18805603 -36.5 12.25 C-38.94140066 9.70687431 -39.49243527 8.31051786 -39.9375 4.75 C-39.5 1.25 -39.5 1.25 -38 -1.0625 C-27.31849506 -8.27251583 -10.83524479 -5.4176224 0 0 Z M-25.5 29.25 C-26.4934389 32.21003468 -26.4934389 32.21003468 -26.5 35.25 C-23.78045607 37.96954393 -21.73905604 38.1852874 -17.95703125 38.3828125 C-17.08433594 38.38023437 -16.21164063 38.37765625 -15.3125 38.375 C-14.43207031 38.37757813 -13.55164063 38.38015625 -12.64453125 38.3828125 C-10.51796809 38.48865033 -10.51796809 38.48865033 -9.5 37.25 C-9.4020943 35.75261876 -9.37025136 34.25057108 -9.375 32.75 C-9.37242187 31.9353125 -9.36984375 31.120625 -9.3671875 30.28125 C-9.2754822 28.25469623 -9.2754822 28.25469623 -10.5 27.25 C-12.26747729 27.12437765 -14.04060292 27.07423442 -15.8125 27.0625 C-16.77800781 27.04832031 -17.74351562 27.03414062 -18.73828125 27.01953125 C-21.56216514 27.25518776 -23.17847082 27.64360854 -25.5 29.25 Z " fill="#869CAA" transform="translate(178.5,100.75)"/>
<path d="M0 0 C2.81201212 2.35368756 3.86562465 3.29826208 4.5625 6.9375 C3.82656896 10.94423568 2.0478257 12.40934815 -1 15 C-2.07314453 14.566875 -2.07314453 14.566875 -3.16796875 14.125 C-10.99166984 11.21008937 -17.68866544 10.51740638 -26 11 C-26 11.99 -26 12.98 -26 14 C-20.75950067 15.9130684 -15.50240619 16.86441449 -10.00976562 17.6796875 C-4.11992665 18.67356253 0.63038966 20.54681419 4.8828125 24.94921875 C7.5920924 29.92254724 7.42420176 35.40924341 6 40.75 C2.54465917 46.36492885 -1.73722974 49.89053397 -8 52 C-19.45270111 54.14521894 -31.86348265 52.99947525 -42.4609375 48.09765625 C-44 47 -44 47 -45 44 C-44.00390625 41.51953125 -44.00390625 41.51953125 -42.5625 38.8125 C-42.08941406 37.91144531 -41.61632812 37.01039063 -41.12890625 36.08203125 C-40.75636719 35.39496094 -40.38382813 34.70789063 -40 34 C-39.39671875 34.20496094 -38.7934375 34.40992188 -38.171875 34.62109375 C-37.37265625 34.89050781 -36.5734375 35.15992188 -35.75 35.4375 C-34.96109375 35.70433594 -34.1721875 35.97117188 -33.359375 36.24609375 C-32.58078125 36.49488281 -31.8021875 36.74367187 -31 37 C-30.401875 37.1959375 -29.80375 37.391875 -29.1875 37.59375 C-25.88650078 38.20679271 -22.59354385 38.10358324 -19.25 38.0625 C-18.55261719 38.05798828 -17.85523438 38.05347656 -17.13671875 38.04882812 C-15.42444197 38.0371002 -13.71220967 38.01916653 -12 38 C-12 36.68 -12 35.36 -12 34 C-12.97839844 33.89042969 -13.95679688 33.78085938 -14.96484375 33.66796875 C-34.65754492 31.34245508 -34.65754492 31.34245508 -42 24 C-44.56095441 19.73174264 -44.638255 15.85871618 -44 11 C-42.62260517 6.54694512 -40.7819947 3.67535906 -37.25 0.625 C-26.09277294 -4.95361353 -11.48724866 -4.7656078 0 0 Z " fill="#00A9E0" transform="translate(238,99)"/>
<path d="M0 0 C4.35709727 3.6443849 7.75620795 7.14726481 8.62338257 13.01446533 C9.06519594 19.00732615 8.86261498 24.99961846 8.69140625 31 C8.66126964 32.83784695 8.63390036 34.67574148 8.609375 36.51367188 C8.54879646 40.99042581 8.43136478 45.46050403 8.31640625 49.9375 C2.70640625 49.9375 -2.90359375 49.9375 -8.68359375 49.9375 C-8.69777344 47.68550781 -8.71195312 45.43351562 -8.7265625 43.11328125 C-8.75721366 40.92213146 -8.7962938 38.73128202 -8.83618164 36.5402832 C-8.85931826 35.02248832 -8.87374723 33.50453387 -8.87915039 31.98657227 C-8.88847297 29.7986357 -8.92952526 27.61319313 -8.9765625 25.42578125 C-8.99227295 24.11134033 -9.0079834 22.79689941 -9.02416992 21.44262695 C-9.83588768 17.12799094 -11.29540799 15.63878341 -14.68359375 12.9375 C-16.77949486 12.29482747 -16.77949486 12.29482747 -18.80859375 12.6875 C-19.47117187 12.74421875 -20.13375 12.8009375 -20.81640625 12.859375 C-23.24257022 14.26025629 -24.12401547 15.90207869 -25.10742188 18.48583984 C-26.44199688 24.16456961 -26.27350151 30.06791047 -26.37109375 35.875 C-26.40431388 37.24026625 -26.43880779 38.60550213 -26.47460938 39.97070312 C-26.55677849 43.29268293 -26.62187033 46.61507742 -26.68359375 49.9375 C-32.29359375 49.9375 -37.90359375 49.9375 -43.68359375 49.9375 C-43.7527743 44.95650014 -43.81241194 39.9771927 -43.84838867 34.99609375 C-43.8633988 33.30462978 -43.88381338 31.61320422 -43.90991211 29.921875 C-43.94664061 27.47906976 -43.96339786 25.0367827 -43.9765625 22.59375 C-43.99204636 21.84758423 -44.00753021 21.10141846 -44.02348328 20.3326416 C-44.02542041 14.17616176 -42.78544892 8.79906186 -39.0625 3.73046875 C-28.06239933 -5.99220087 -12.88538193 -6.09534589 0 0 Z " fill="#859CAA" transform="translate(354.68359375,100.0625)"/>
<path d="M0 0 C0.9796875 -0.00257812 1.959375 -0.00515625 2.96875 -0.0078125 C5.5 0.125 5.5 0.125 7.5 1.125 C7.51981934 1.94701904 7.53963867 2.76903809 7.56005859 3.6159668 C7.65544603 7.34846126 7.76507089 11.0804067 7.875 14.8125 C7.9059375 16.10607422 7.936875 17.39964844 7.96875 18.73242188 C8.00742187 19.97958984 8.04609375 21.22675781 8.0859375 22.51171875 C8.13306885 24.23201294 8.13306885 24.23201294 8.18115234 25.98706055 C8.61314133 30.23848051 9.46086217 33.08586217 12.5 36.125 C14.60417968 36.48139561 14.60417968 36.48139561 16.9375 36.4375 C17.71996094 36.45425781 18.50242187 36.47101563 19.30859375 36.48828125 C22.04293887 36.03499409 22.86660516 35.33782542 24.5 33.125 C25.58594617 29.80025485 25.65266171 26.63365377 25.7109375 23.15234375 C25.75347656 21.43241211 25.75347656 21.43241211 25.796875 19.67773438 C25.84903934 17.26382954 25.89328608 14.84974086 25.9296875 12.43554688 C25.97609375 10.71754883 25.97609375 10.71754883 26.0234375 8.96484375 C26.04325684 7.91675537 26.06307617 6.86866699 26.08349609 5.78881836 C26.5 3.125 26.5 3.125 27.86767578 1.28051758 C30.25305495 -0.40808541 32.11441792 -0.20256941 35 -0.125 C35.9590625 -0.10953125 36.918125 -0.0940625 37.90625 -0.078125 C40.5 0.125 40.5 0.125 43.5 1.125 C43.57479497 5.65987644 43.62890262 10.19438482 43.66479492 14.72973633 C43.67977543 16.26886255 43.7001671 17.80794688 43.72631836 19.34692383 C43.88603152 28.99547776 43.94917221 37.37637965 38.8125 45.9375 C31.57688109 52.78200437 23.03448405 53.48529095 13.53515625 53.34375 C6.53728887 53.08450972 0.4746728 51.24180631 -4.5 46.125 C-10.00175171 38.31064757 -9.6864333 30.81524591 -9.68530273 21.57739258 C-9.68749721 19.56505424 -9.70570701 17.55325778 -9.72460938 15.54101562 C-9.72654297 14.26806641 -9.72847656 12.99511719 -9.73046875 11.68359375 C-9.73457764 10.52142334 -9.73868652 9.35925293 -9.74291992 8.16186523 C-9.50724176 5.21553286 -9.1349105 3.55777844 -7.5 1.125 C-4.89080172 -0.17959914 -2.91057385 -0.0076594 0 0 Z " fill="#859BAA" transform="translate(259.5,97.875)"/>
<path d="M0 0 C0.99 0.66 1.98 1.32 3 2 C2.54109375 2.56847656 2.0821875 3.13695313 1.609375 3.72265625 C-4.61492839 11.55534056 -10.5234611 19.15743429 -9.9375 29.6875 C-9.45454342 32.86741634 -9.04340737 33.94438431 -7 36.5625 C-2.92706792 38.51411329 0.56050919 38.84640759 5 38 C7.50160818 36.12379387 8.61945652 34.76108697 10 32 C10.06950541 30.45976004 10.08452357 28.91665012 10.0625 27.375 C10.05347656 26.55773437 10.04445313 25.74046875 10.03515625 24.8984375 C10.02355469 24.27195312 10.01195312 23.64546875 10 23 C10.66 23 11.32 23 12 23 C13.23339675 26.70019025 13.19084914 30.14555812 13.1875 34 C13.18814453 34.75659912 13.18878906 35.51319824 13.18945312 36.29272461 C13.13279769 42.35034984 12.42668994 48.10216569 11 54 C1.10414059 56.75786246 -7.57025775 56.67560695 -16.70703125 51.5625 C-23.7251006 46.78016995 -26.95393402 41.38514033 -28.625 33.08203125 C-29.72075312 24.07631026 -28.11339948 16.55087489 -23 9 C-17.16891367 2.12454 -8.9483135 -0.89483135 0 0 Z " fill="#009FD9" transform="translate(400,96)"/>
<path d="M0 0 C0.83660156 0.02191406 1.67320312 0.04382813 2.53515625 0.06640625 C5.02914559 0.45165664 6.76139562 1.18611434 8.9375 2.4375 C8.3972521 7.16642796 7.46246012 11.15985055 5.63671875 15.55078125 C5.15952393 16.70473389 4.6823291 17.85868652 4.19067383 19.04760742 C3.66930002 20.28195698 3.14739685 21.51608306 2.625 22.75 C2.09061252 24.02769779 1.55635325 25.30544921 1.0222168 26.58325195 C-4.62578839 40.01926406 -10.54403551 53.40057102 -17.0625 66.4375 C-21.993722 66.00239218 -24.61131403 63.88868597 -28.0625 60.4375 C-29.78277802 57.44549446 -30.3008933 55.43096801 -29.48825073 52.04440308 C-28.44342536 49.08395884 -27.27799685 46.20155532 -26.05859375 43.30859375 C-25.62370132 42.2413356 -25.1888089 41.17407745 -24.74073792 40.07447815 C-23.81733383 37.82070791 -22.88455111 35.57076071 -21.94311523 33.32446289 C-20.50755122 29.89304961 -19.10622004 26.44912433 -17.70898438 23.00195312 C-16.80669504 20.81167192 -15.90246158 18.62219037 -14.99609375 16.43359375 C-14.57815048 15.40640732 -14.16020721 14.37922089 -13.729599 13.32090759 C-7.935809 -0.38023196 -7.935809 -0.38023196 0 0 Z " fill="#009CD7" transform="translate(133.0625,74.5625)"/>
<path d="M0 0 C2.6875 1.6875 2.6875 1.6875 4.6875 4.6875 C4.39045038 8.84619464 4.01811852 11.19157222 1.6875 14.6875 C-1.50207321 14.83315967 -4.54809332 14.70467116 -7.7265625 14.48242188 C-10.91158359 14.35389248 -12.85533374 14.36511562 -15.49951172 16.22973633 C-17.91954305 19.51043326 -17.91499137 22.36835257 -17.921875 26.296875 C-17.93841125 27.02368469 -17.95494751 27.75049438 -17.97198486 28.49932861 C-18.02042361 30.81213869 -18.04182489 33.12429157 -18.0625 35.4375 C-18.09066341 37.00914757 -18.12059137 38.58076459 -18.15234375 40.15234375 C-18.22949444 43.99769677 -18.27004396 47.84098242 -18.3125 51.6875 C-23.5925 51.6875 -28.8725 51.6875 -34.3125 51.6875 C-34.41193082 46.42225555 -34.48423199 41.15756657 -34.53222656 35.89160156 C-34.55224959 34.10309316 -34.57947654 32.31464946 -34.61425781 30.52636719 C-34.66318955 27.94449838 -34.68556165 25.3635005 -34.703125 22.78125 C-34.72377014 21.99133667 -34.74441528 21.20142334 -34.76568604 20.38757324 C-34.76830711 13.79260744 -32.97746748 8.38315808 -28.27734375 3.62890625 C-27.60832031 3.17386719 -26.93929687 2.71882813 -26.25 2.25 C-25.57839844 1.77691406 -24.90679688 1.30382812 -24.21484375 0.81640625 C-17.98145381 -2.88266909 -6.70490385 -2.71897375 0 0 Z " fill="#FAFCFE" transform="translate(592.3125,98.3125)"/>
<path d="M0 0 C0.9590625 0.01546875 1.918125 0.0309375 2.90625 0.046875 C5.5 0.25 5.5 0.25 8.5 1.25 C8.57479497 5.78487644 8.62890262 10.31938482 8.66479492 14.85473633 C8.67977543 16.39386255 8.7001671 17.93294688 8.72631836 19.47192383 C8.86530869 27.8685749 8.97391549 35.41837693 5.5 43.25 C3.12136741 45.62863259 -3.09128026 44.67612563 -6.40771484 44.72070312 C-13.36605329 44.61554629 -18.12584442 42.78697556 -23.5 38.25 C-23.17 37.59 -22.84 36.93 -22.5 36.25 C-21.88511719 36.28480469 -21.27023437 36.31960937 -20.63671875 36.35546875 C-19.42435547 36.39607422 -19.42435547 36.39607422 -18.1875 36.4375 C-17.38699219 36.47230469 -16.58648437 36.50710937 -15.76171875 36.54296875 C-13.45315626 36.42808449 -13.45315626 36.42808449 -11.76953125 34.98828125 C-9.1829056 31.44659382 -9.36040814 27.53942762 -9.2890625 23.27734375 C-9.26070313 22.13072266 -9.23234375 20.98410156 -9.203125 19.80273438 C-9.15096066 17.38882954 -9.10671392 14.97474086 -9.0703125 12.56054688 C-9.02390625 10.84254883 -9.02390625 10.84254883 -8.9765625 9.08984375 C-8.95674316 8.04175537 -8.93692383 6.99366699 -8.91650391 5.91381836 C-8.5 3.25 -8.5 3.25 -7.13232422 1.40551758 C-4.74694505 -0.28308541 -2.88558208 -0.07756941 0 0 Z " fill="#0099D4" transform="translate(294.5,97.75)"/>
<path d="M0 0 C0 0.66 0 1.32 0 2 C0.99773438 1.67644531 1.99546875 1.35289063 3.0234375 1.01953125 C6.91782147 -0.08881004 10.56696164 -0.30010273 14.625 -0.3125 C16.53152344 -0.33763672 16.53152344 -0.33763672 18.4765625 -0.36328125 C22.20366771 0.020999 24.14891066 0.58039736 27 3 C27 4.32 27 5.64 27 7 C26.14619751 7.02187378 26.14619751 7.02187378 25.27514648 7.04418945 C22.66196172 7.11929165 20.04996901 7.21574189 17.4375 7.3125 C16.54224609 7.33505859 15.64699219 7.35761719 14.72460938 7.38085938 C9.07601537 7.6084584 5.05513519 8.46917942 0 11 C-0.99 11.33 -1.98 11.66 -3 12 C-4.20882096 14.00016466 -4.20882096 14.00016466 -5 16 C-5.99 15.67 -6.98 15.34 -8 15 C-8 16.32 -8 17.64 -8 19 C-8.66 18.67 -9.32 18.34 -10 18 C-9.67 17.01 -9.34 16.02 -9 15 C-9.99 15.33 -10.98 15.66 -12 16 C-12.16687448 18.41645782 -12.16687448 18.41645782 -12 21 C-11.34 21.66 -10.68 22.32 -10 23 C-9.5625 25.9375 -9.5625 25.9375 -10 29 C-12.5 30.875 -12.5 30.875 -15 32 C-15.226875 31.38125 -15.45375 30.7625 -15.6875 30.125 C-16.84804335 27.75610871 -16.84804335 27.75610871 -19.5625 27.0625 C-20.7690625 26.5365625 -20.7690625 26.5365625 -22 26 C-22.8125 23.375 -22.8125 23.375 -23 21 C-24.32 21.33 -25.64 21.66 -27 22 C-27.66 20.35 -28.32 18.7 -29 17 C-29.33 24.59 -29.66 32.18 -30 40 C-30.33 40 -30.66 40 -31 40 C-31.12394421 35.39194479 -31.21449675 30.78486719 -31.2746582 26.17553711 C-31.29974547 24.60895886 -31.33382415 23.04249701 -31.37719727 21.47631836 C-31.43811226 19.21959691 -31.46626499 16.96442706 -31.48828125 14.70703125 C-31.51408768 14.01100296 -31.5398941 13.31497467 -31.56648254 12.59785461 C-31.56868396 8.74880997 -31.09099117 7.11684937 -28.69848633 4.04443359 C-25.07818159 1.30160975 -22.85521415 1.55181693 -18.375 1.8125 C-12.82818652 2.30366234 -12.82818652 2.30366234 -8 0 C-2.47887324 -1.23943662 -2.47887324 -1.23943662 0 0 Z " fill="#4DA2D9" transform="translate(605,110)"/>
<path d="M0 0 C3.65143299 4.40479961 3.39465831 8.58646473 3.29296875 14.01953125 C3.28872391 14.87810226 3.28447906 15.73667328 3.28010559 16.6212616 C3.26336995 19.35199914 3.22572766 22.08198712 3.1875 24.8125 C3.17244653 26.6686091 3.15875928 28.52472982 3.14648438 30.38085938 C3.11604026 34.92109103 3.0573108 39.45971074 3 44 C-2.61 44 -8.22 44 -14 44 C-14.01417969 41.74800781 -14.02835937 39.49601562 -14.04296875 37.17578125 C-14.07361991 34.98463146 -14.11270005 32.79378202 -14.15258789 30.6027832 C-14.17572451 29.08498832 -14.19015348 27.56703387 -14.19555664 26.04907227 C-14.20487922 23.8611357 -14.24593151 21.67569313 -14.29296875 19.48828125 C-14.31653442 17.51661987 -14.31653442 17.51661987 -14.34057617 15.50512695 C-15.15493046 11.17647663 -16.58872702 9.69983949 -20 7 C-22.67790896 6.12761142 -22.67790896 6.12761142 -25 6 C-23.54182493 3.08364987 -21.72717056 2.93947607 -18.6875 1.875 C-12.69834607 -0.02347583 -6.22160624 -1.56757215 0 0 Z " fill="#0097D2" transform="translate(360,106)"/>
<path d="M0 0 C4.401885 3.9616965 6.59287347 8.37440715 7.5 14.25 C7.57700286 15.94257245 7.60805067 17.63773999 7.59765625 19.33203125 C7.59443359 20.26337891 7.59121094 21.19472656 7.58789062 22.15429688 C7.57532227 23.59385742 7.57532227 23.59385742 7.5625 25.0625 C7.55798828 26.04154297 7.55347656 27.02058594 7.54882812 28.02929688 C7.53708684 30.43626111 7.52066419 32.84309857 7.5 35.25 C5.13986167 32.88986167 4.34176144 30.74156747 3 27.6875 C-0.60456365 20.34585197 -5.75721876 14.22511049 -13.4453125 11.0234375 C-21.17542084 9.06619779 -28.96218512 9.93067234 -36.5 12.25 C-38.94140066 9.70687431 -39.49243527 8.31051786 -39.9375 4.75 C-39.5 1.25 -39.5 1.25 -38 -1.0625 C-27.31849506 -8.27251583 -10.83524479 -5.4176224 0 0 Z " fill="#0094D0" transform="translate(178.5,100.75)"/>
<path d="M0 0 C3.70132177 3.12005184 5.79559607 6.72880165 6.69140625 11.42578125 C6.77093431 13.15863773 6.79914768 14.89425511 6.7890625 16.62890625 C6.78583984 17.60859375 6.78261719 18.58828125 6.77929688 19.59765625 C6.76672852 21.12132812 6.76672852 21.12132812 6.75390625 22.67578125 C6.74939453 23.70703125 6.74488281 24.73828125 6.74023438 25.80078125 C6.72846713 28.34250698 6.71202636 30.88411444 6.69140625 33.42578125 C3.91086996 30.64524496 2.66844545 27.37063898 1.0078125 23.8359375 C-0.23062018 21.56853999 -1.48465347 20.20718065 -3.30859375 18.42578125 C-3.30859375 17.76578125 -3.30859375 17.10578125 -3.30859375 16.42578125 C-3.82421875 16.17828125 -4.33984375 15.93078125 -4.87109375 15.67578125 C-6.91576837 14.62723017 -8.88686977 13.51934395 -10.87109375 12.36328125 C-19.32659607 7.59745267 -28.24340472 9.04802675 -37.30859375 11.42578125 C-39.68322925 8.29126239 -40.3214362 6.79821221 -40.18359375 2.80078125 C-39.29615087 -0.62221273 -38.94434837 -1.45468336 -36.30859375 -3.57421875 C-25.12556899 -7.93093881 -9.90240887 -6.78164971 0 0 Z " fill="#0094D0" transform="translate(702.30859375,101.57421875)"/>
<path d="M0 0 C1.06250977 0.14284424 1.06250977 0.14284424 2.14648438 0.28857422 C7.19519439 1.02358651 11.56467186 2.19370377 16.1875 4.3125 C16.1875 5.6325 16.1875 6.9525 16.1875 8.3125 C17.1775 8.6425 18.1675 8.9725 19.1875 9.3125 C19.8888284 11.63565031 20.55235174 13.97039079 21.1875 16.3125 C21.72375 17.01375 22.26 17.715 22.8125 18.4375 C24.57458178 20.8403388 24.43001673 22.40229925 24.1875 25.3125 C20.36514695 22.01736806 18.90754503 18.95662157 17.1875 14.3125 C17.1875 13.6525 17.1875 12.9925 17.1875 12.3125 C16.1975 12.3125 15.2075 12.3125 14.1875 12.3125 C14.1875 13.3025 14.1875 14.2925 14.1875 15.3125 C11.8775 15.3125 9.5675 15.3125 7.1875 15.3125 C7.1875 17.6225 7.1875 19.9325 7.1875 22.3125 C9.1675 22.3125 11.1475 22.3125 13.1875 22.3125 C14.5075 24.6225 15.8275 26.9325 17.1875 29.3125 C16.5275 29.6425 15.8675 29.9725 15.1875 30.3125 C14.8575 29.6525 14.5275 28.9925 14.1875 28.3125 C14.043125 29.42625 13.89875 30.54 13.75 31.6875 C13.1875 35.3125 13.1875 35.3125 12.1875 37.3125 C13.5075 37.3125 14.8275 37.3125 16.1875 37.3125 C16.8475 36.3225 17.5075 35.3325 18.1875 34.3125 C19.1775 34.6425 20.1675 34.9725 21.1875 35.3125 C20.1875 38.3125 20.1875 38.3125 18.1875 39.3125 C15.47487884 39.5447646 12.77976874 39.73186235 10.0625 39.875 C8.93134766 39.93977539 8.93134766 39.93977539 7.77734375 40.00585938 C5.91428112 40.1119832 4.05091476 40.21275001 2.1875 40.3125 C1.68237756 38.70993892 1.18358373 37.10538208 0.6875 35.5 C0.4090625 34.60667969 0.130625 33.71335938 -0.15625 32.79296875 C-0.8125 30.3125 -0.8125 30.3125 -0.8125 27.3125 C-1.4725 26.9825 -2.1325 26.6525 -2.8125 26.3125 C-2.4825 25.6525 -2.1525 24.9925 -1.8125 24.3125 C-2.4725 23.9825 -3.1325 23.6525 -3.8125 23.3125 C-3.4825 22.6525 -3.1525 21.9925 -2.8125 21.3125 C-3.4725 20.9825 -4.1325 20.6525 -4.8125 20.3125 C-5.48828125 18.52734375 -5.48828125 18.52734375 -6.125 16.25 C-7.44609443 11.98708703 -9.31077297 8.61148195 -11.82421875 4.94140625 C-12.8125 3.3125 -12.8125 3.3125 -12.8125 1.3125 C-8.4075929 -0.97120912 -4.76061866 -0.69360744 0 0 Z " fill="#89CFF1" transform="translate(607.8125,57.6875)"/>
<path d="M0 0 C-0.66 0.33 -1.32 0.66 -2 1 C-2.53625 0.71511719 -3.0725 0.43023437 -3.625 0.13671875 C-6.95852001 -1.45876533 -10.37169176 -1.76354007 -14 -2.1875 C-15.06734375 -2.32961914 -15.06734375 -2.32961914 -16.15625 -2.47460938 C-19.74862436 -2.91360288 -22.52590773 -2.91027898 -26 -2 C-26.99 -2.99 -26.99 -2.99 -28 -4 C-30.32275177 -4.40047444 -32.65739357 -4.7397104 -35 -5 C-35.495 -6.485 -35.495 -6.485 -36 -8 C-42.26182227 -7.38682161 -42.26182227 -7.38682161 -48 -5 C-48.99 -5 -49.98 -5 -51 -5 C-51.33 -4.34 -51.66 -3.68 -52 -3 C-52.763125 -3.20625 -53.52625 -3.4125 -54.3125 -3.625 C-57.21885944 -4.33391203 -57.21885944 -4.33391203 -60 -2 C-60.99 -0.515 -60.99 -0.515 -62 1 C-62.99 0.67 -63.98 0.34 -65 0 C-66.87755022 0.03578908 -68.75440187 0.14715689 -70.625 0.3125 C-71.60726562 0.39113281 -72.58953125 0.46976563 -73.6015625 0.55078125 C-74.39304687 0.69902344 -75.18453125 0.84726562 -76 1 C-76.33 1.66 -76.66 2.32 -77 3 C-78.32 3 -79.64 3 -81 3 C-81 3.66 -81 4.32 -81 5 C-82.32 5.33 -83.64 5.66 -85 6 C-84.25 4.0625 -84.25 4.0625 -83 2 C-80.875 1.25 -80.875 1.25 -79 1 C-79 0.34 -79 -0.32 -79 -1 C-84.3086849 -0.41825155 -84.3086849 -0.41825155 -89 2 C-89.99 1.67 -90.98 1.34 -92 1 C-69.92252636 -23.04682575 -24.06647716 -16.8724917 0 0 Z " fill="#056CAC" transform="translate(622,61)"/>
<path d="M0 0 C2.81201212 2.35368756 3.86562465 3.29826208 4.5625 6.9375 C3.82656896 10.94423568 2.0478257 12.40934815 -1 15 C-1.73863281 14.71125 -2.47726563 14.4225 -3.23828125 14.125 C-12.73942734 10.64808758 -21.19686911 9.34122873 -30.86328125 12.93359375 C-33.99235893 14.49527237 -36.61021116 16.54073413 -39.2734375 18.79296875 C-41 20 -41 20 -44 20 C-44.5461752 13.44589763 -43.9507592 8.41082239 -40 3 C-29.73710648 -5.86340804 -11.94100217 -4.95385229 0 0 Z " fill="#869CAA" transform="translate(238,99)"/>
<path d="M0 0 C0.60328125 0.20496094 1.2065625 0.40992188 1.828125 0.62109375 C3.02695313 1.02521484 3.02695313 1.02521484 4.25 1.4375 C5.03890625 1.70433594 5.8278125 1.97117188 6.640625 2.24609375 C7.80851563 2.61927734 7.80851563 2.61927734 9 3 C9.598125 3.1959375 10.19625 3.391875 10.8125 3.59375 C14.11349922 4.20679271 17.40645615 4.10358324 20.75 4.0625 C21.44738281 4.05798828 22.14476562 4.05347656 22.86328125 4.04882812 C24.57555803 4.0371002 26.28779033 4.01916653 28 4 C28.33 2.68 28.66 1.36 29 0 C33.69267989 4.0409188 35.7650674 8.26908345 38 14 C34.29940074 18.38768121 29.46597405 18.50971869 24 19 C14.8580351 19.10568746 5.31849801 18.01890625 -3 14 C-4.5078125 12.19140625 -4.5078125 12.19140625 -5 10 C-4.1015625 7.421875 -4.1015625 7.421875 -2.625 4.75 C-2.14289063 3.85796875 -1.66078125 2.9659375 -1.1640625 2.046875 C-0.77992188 1.37140625 -0.39578125 0.6959375 0 0 Z " fill="#869CAA" transform="translate(198,133)"/>
<path d="M0 0 C7.78859629 2.19054271 13.17362504 8.54364455 17.08984375 15.30078125 C19.30129492 19.42945618 19.11070934 23.02164822 19.0625 27.625 C19.041875 30.38875 19.02125 33.1525 19 36 C13.39 36 7.78 36 2 36 C1.93941406 33.73640625 1.87882812 31.4728125 1.81640625 29.140625 C1.75455879 26.94300184 1.6911952 24.74542724 1.62768555 22.54785156 C1.58443293 21.02315614 1.54275115 19.49841531 1.50268555 17.97363281 C1.44474797 15.77915778 1.38112205 13.58490932 1.31640625 11.390625 C1.29969376 10.7113092 1.28298126 10.03199341 1.26576233 9.33209229 C1.16492528 6.09461448 0.96860824 3.10230396 0 0 Z " fill="#008BC9" transform="translate(470,114)"/>
<path d="M0 0 C7.26 0 14.52 0 22 0 C20.66666667 6.66666667 20.66666667 6.66666667 19 9 C16.375 9.75 16.375 9.75 14 10 C14.268125 10.70125 14.53625 11.4025 14.8125 12.125 C15.02675956 15.41031327 14.67857471 15.86149867 12.6875 18.3125 C11.800625 19.199375 10.91375 20.08625 10 21 C9.34 21 8.68 21 8 21 C7.67 21.99 7.34 22.98 7 24 C1.25712514 29.17848888 -4.1455997 32.54472986 -12 32.5625 C-15.45942485 32.36324391 -18.66802391 31.95313739 -22 31 C-22 29.35 -22 27.7 -22 26 C-20.96101562 25.70867187 -19.92203125 25.41734375 -18.8515625 25.1171875 C-9.30774317 22.34784211 -0.00103227 19.46482305 7 12 C6.20882096 10.00016466 6.20882096 10.00016466 5 8 C4.01 7.67 3.02 7.34 2 7 C0.8125 4.4375 0.8125 4.4375 0 2 C3 3 3 3 4 5 C4.66 4.34 5.32 3.68 6 3 C7.423125 3.7425 7.423125 3.7425 8.875 4.5 C11.72278166 6.14424369 11.72278166 6.14424369 14 6 C14.99 4.68 15.98 3.36 17 2 C11.39 1.67 5.78 1.34 0 1 C0 0.67 0 0.34 0 0 Z " fill="#2F9BD1" transform="translate(618,150)"/>
<path d="M0 0 C0.99773438 0.57621094 1.99546875 1.15242187 3.0234375 1.74609375 C23.47628141 13.41068655 43.89132546 18.87156951 67.5625 13.6875 C70.85984486 12.77108367 73.94655958 11.65866473 77.0625 10.25 C80 9 80 9 82.4375 9.3125 C82.953125 9.539375 83.46875 9.76625 84 10 C84 10.99 84 11.98 84 13 C80.91729306 13.98114627 77.83372822 14.95956877 74.75 15.9375 C73.44095703 16.35418945 73.44095703 16.35418945 72.10546875 16.77929688 C70.83896484 17.18051758 70.83896484 17.18051758 69.546875 17.58984375 C68.77182617 17.83597412 67.99677734 18.08210449 67.19824219 18.33569336 C60.6332203 20.31963656 54.406583 20.25928007 47.5625 20.3125 C45.74975586 20.35600586 45.74975586 20.35600586 43.90039062 20.40039062 C32.46164565 20.48003909 22.63000944 17.7070142 12.5 12.5 C11.3759375 11.9328125 10.251875 11.365625 9.09375 10.78125 C1.39917012 6.35103734 1.39917012 6.35103734 0.1875 2.25 C0.125625 1.5075 0.06375 0.765 0 0 Z " fill="#2274AA" transform="translate(527,181)"/>
<path d="M0 0 C1.12019531 -0.01417969 2.24039062 -0.02835938 3.39453125 -0.04296875 C6.1875 0.1875 6.1875 0.1875 8.1875 2.1875 C8.41455078 4.06689453 8.41455078 4.06689453 8.3828125 6.3203125 C8.37636719 7.12597656 8.36992187 7.93164062 8.36328125 8.76171875 C8.34652344 9.60347656 8.32976562 10.44523438 8.3125 11.3125 C8.30347656 12.16199219 8.29445313 13.01148438 8.28515625 13.88671875 C8.26155647 15.98709884 8.22568483 18.08733444 8.1875 20.1875 C6.5375 20.1875 4.8875 20.1875 3.1875 20.1875 C3.13851563 19.18847656 3.08953125 18.18945312 3.0390625 17.16015625 C2.96429688 15.86980469 2.88953125 14.57945312 2.8125 13.25 C2.74289062 11.96222656 2.67328125 10.67445313 2.6015625 9.34765625 C2.46492188 8.30480469 2.32828125 7.26195312 2.1875 6.1875 C1.5275 5.8575 0.8675 5.5275 0.1875 5.1875 C0.1875 10.1375 0.1875 15.0875 0.1875 20.1875 C-1.7925 20.1875 -3.7725 20.1875 -5.8125 20.1875 C-5.8125 15.2375 -5.8125 10.2875 -5.8125 5.1875 C-6.8025 5.6825 -6.8025 5.6825 -7.8125 6.1875 C-8.28251033 9.46305608 -8.28251033 9.46305608 -8.4375 13.25 C-8.51226562 14.54035156 -8.58703125 15.83070313 -8.6640625 17.16015625 C-8.71304687 18.15917969 -8.76203125 19.15820312 -8.8125 20.1875 C-10.4625 20.1875 -12.1125 20.1875 -13.8125 20.1875 C-13.8125 13.9175 -13.8125 7.6475 -13.8125 1.1875 C-9.00487298 0.50069614 -4.7900707 0.02788167 0 0 Z " fill="#869BA9" transform="translate(422.8125,161.8125)"/>
<path d="M0 0 C0 2.31 0 4.62 0 7 C1.98 7 3.96 7 6 7 C7.32 9.31 8.64 11.62 10 14 C9.01 14.495 9.01 14.495 8 15 C7.67 14.34 7.34 13.68 7 13 C6.855625 14.11375 6.71125 15.2275 6.5625 16.375 C6 20 6 20 5 22 C6.32 22 7.64 22 9 22 C9.66 21.01 10.32 20.02 11 19 C11.99 19.33 12.98 19.66 14 20 C13 23 13 23 11 24 C8.28737884 24.2322646 5.59226874 24.41936235 2.875 24.5625 C1.74384766 24.62727539 1.74384766 24.62727539 0.58984375 24.69335938 C-1.27321888 24.7994832 -3.13658524 24.90025001 -5 25 C-5.50512244 23.39743892 -6.00391627 21.79288208 -6.5 20.1875 C-6.7784375 19.29417969 -7.056875 18.40085937 -7.34375 17.48046875 C-8 15 -8 15 -8 12 C-8.66 11.67 -9.32 11.34 -10 11 C-9.67 10.34 -9.34 9.68 -9 9 C-9.66 8.67 -10.32 8.34 -11 8 C-10.67 7.34 -10.34 6.68 -10 6 C-10.66 5.67 -11.32 5.34 -12 5 C-12 3.68 -12 2.36 -12 1 C-10.56274129 0.83126522 -9.12518162 0.66509263 -7.6875 0.5 C-6.88699219 0.4071875 -6.08648438 0.314375 -5.26171875 0.21875 C-3 0 -3 0 0 0 Z " fill="#79C3EB" transform="translate(615,73)"/>
<path d="M0 0 C3.96 0 7.92 0 12 0 C11.67 10.89 11.34 21.78 11 33 C7.36680502 30.57787001 6.28322727 28.02723527 5 24 C4.66140041 21.66742506 4.3267961 19.33425788 4 17 C3.34 16.67 2.68 16.34 2 16 C2 23.92 2 31.84 2 40 C1.67 40 1.34 40 1 40 C0.67 26.8 0.34 13.6 0 0 Z " fill="#3397D2" transform="translate(547,109)"/>
<path d="M0 0 C2.31193516 5.77983789 2.98556219 10.91190513 1.0625 16.9375 C0 19 0 19 -1 20 C-2.99958364 20.04080783 -5.00045254 20.04254356 -7 20 C-7 21.98 -7 23.96 -7 26 C-8.65 26 -10.3 26 -12 26 C-12 17.42 -12 8.84 -12 0 C-4.125 -1.125 -4.125 -1.125 0 0 Z M-6 4 C-7.23267348 5.00836062 -7.23267348 5.00836062 -7.09765625 7.06640625 C-7.08605469 7.89011719 -7.07445312 8.71382812 -7.0625 9.5625 C-7.05347656 10.38878906 -7.04445313 11.21507812 -7.03515625 12.06640625 C-7.02355469 12.70449219 -7.01195312 13.34257812 -7 14 C-6.01 14.33 -5.02 14.66 -4 15 C-4 11.37 -4 7.74 -4 4 C-4.66 4 -5.32 4 -6 4 Z " fill="#859BA9" transform="translate(446,163)"/>
<path d="M0 0 C2.17578125 1.4765625 2.17578125 1.4765625 4 4 C4.48539787 6.93324853 4.37774624 9.78726988 4.25 12.75 C4.23195313 13.54277344 4.21390625 14.33554688 4.1953125 15.15234375 C4.14833082 17.10208348 4.07659044 19.05119878 4 21 C2.04196493 21.05389087 0.08351091 21.09274217 -1.875 21.125 C-3.51082031 21.15980469 -3.51082031 21.15980469 -5.1796875 21.1953125 C-8 21 -8 21 -10 19 C-10.66455473 13.84970081 -10.66455473 13.84970081 -10 11 C-5.4 7 -5.4 7 -2 7 C-2 6.01 -2 5.02 -2 4 C-2.391875 4.495 -2.78375 4.99 -3.1875 5.5 C-5.55091715 7.45593143 -7.01435003 7.24207973 -10 7 C-9.6875 4.625 -9.6875 4.625 -9 2 C-5.50875983 -0.32749345 -4.10777749 -0.50299316 0 0 Z M-3.5625 12.5 C-4.036875 12.995 -4.51125 13.49 -5 14 C-4.67 14.99 -4.34 15.98 -4 17 C-3.34 16.67 -2.68 16.34 -2 16 C-1.34444881 13.47266765 -1.34444881 13.47266765 -1 11 C-2.24076302 10.88457803 -2.24076302 10.88457803 -3.5625 12.5 Z " fill="#869BA9" transform="translate(460,162)"/>
<path d="M0 0 C1.1482685 2.296537 1.11561175 3.58313167 1.09765625 6.1328125 C1.09443359 6.93847656 1.09121094 7.74414062 1.08789062 8.57421875 C1.07951172 9.41597656 1.07113281 10.25773438 1.0625 11.125 C1.05798828 11.97449219 1.05347656 12.82398438 1.04882812 13.69921875 C1.03702874 15.79950909 1.01909306 17.8997633 1 20 C-0.65 20 -2.3 20 -4 20 C-4.33 15.05 -4.66 10.1 -5 5 C-5.33 5 -5.66 5 -6 5 C-6.33 9.95 -6.66 14.9 -7 20 C-8.98 20 -10.96 20 -13 20 C-13 13.4 -13 6.8 -13 0 C-4.58823529 -1.20168067 -4.58823529 -1.20168067 0 0 Z " fill="#0082C7" transform="translate(342,163)"/>
<path d="M0 0 C1.65 0 3.3 0 5 0 C5.04898437 0.99902344 5.09796875 1.99804688 5.1484375 3.02734375 C5.22320312 4.31769531 5.29796875 5.60804688 5.375 6.9375 C5.44460938 8.22527344 5.51421875 9.51304687 5.5859375 10.83984375 C5.72257812 11.88269531 5.85921875 12.92554688 6 14 C6.66 14.33 7.32 14.66 8 15 C8 10.05 8 5.1 8 0 C9.98 0 11.96 0 14 0 C14 6.6 14 13.2 14 20 C4.8203125 20.1953125 4.8203125 20.1953125 2 20 C0 18 0 18 -0.22705078 16.12060547 C-0.21657715 15.37697754 -0.20610352 14.63334961 -0.1953125 13.8671875 C-0.18886719 13.06152344 -0.18242187 12.25585938 -0.17578125 11.42578125 C-0.15064453 10.16314453 -0.15064453 10.16314453 -0.125 8.875 C-0.11597656 8.02550781 -0.10695313 7.17601562 -0.09765625 6.30078125 C-0.07405647 4.20040116 -0.03818483 2.10016556 0 0 Z " fill="#0082C6" transform="translate(313,163)"/>
<path d="M0 0 C0.66 0.33 1.32 0.66 2 1 C3.1577506 4.47325181 3.06866652 7.36067448 3 11 C0.03 11 -2.94 11 -6 11 C-5.67 12.65 -5.34 14.3 -5 16 C-4.34 16 -3.68 16 -3 16 C-2.67 14.68 -2.34 13.36 -2 12 C-0.35 12 1.3 12 3 12 C2.25 17.75 2.25 17.75 0 20 C-5.68348624 20.5412844 -5.68348624 20.5412844 -8 20 C-10.49496976 17.67922858 -10.96834572 16.27263525 -11.36328125 12.87109375 C-11.34652344 11.73800781 -11.32976562 10.60492188 -11.3125 9.4375 C-11.30863281 8.30183594 -11.30476563 7.16617188 -11.30078125 5.99609375 C-11 3 -11 3 -9 0 C-5.49142603 -1.16952466 -3.57280503 -0.76017128 0 0 Z M-5 4 C-5.33 4.99 -5.66 5.98 -6 7 C-5.01 7 -4.02 7 -3 7 C-3 6.01 -3 5.02 -3 4 C-3.66 4 -4.32 4 -5 4 Z " fill="#0083C7" transform="translate(371,163)"/>
<path d="M0 0 C0.47102169 3.95658217 0.24185426 5.63721861 -2 9 C-5.20882821 12.45566115 -8.87957872 15.68994274 -13 18 C-14.32 18 -15.64 18 -17 18 C-16.67 16.68 -16.34 15.36 -16 14 C-16.66 14 -17.32 14 -18 14 C-18 13.34 -18 12.68 -18 12 C-19.13888672 12.34224609 -19.13888672 12.34224609 -20.30078125 12.69140625 C-21.29464844 12.97886719 -22.28851562 13.26632813 -23.3125 13.5625 C-24.29863281 13.85253906 -25.28476562 14.14257812 -26.30078125 14.44140625 C-29 15 -29 15 -32 14 C-31.67 12.02 -31.34 10.04 -31 8 C-29.91203125 8.0928125 -28.8240625 8.185625 -27.703125 8.28125 C-17.76808841 8.8614643 -12.2068224 8.07583178 -4.22265625 1.75 C-2 0 -2 0 0 0 Z " fill="#0184C7" transform="translate(627,173)"/>
<path d="M0 0 C7.26 0 14.52 0 22 0 C20.66666667 6.66666667 20.66666667 6.66666667 19 9 C16.375 9.75 16.375 9.75 14 10 C14.268125 10.70125 14.53625 11.4025 14.8125 12.125 C15.03000735 15.46011275 14.63169388 15.86550387 12.5625 18.3125 C11.2940625 19.6428125 11.2940625 19.6428125 10 21 C9.01 20.01 8.02 19.02 7 18 C6.34 18.99 5.68 19.98 5 21 C4.01 20.67 3.02 20.34 2 20 C2.54226981 16.20411134 4.20127563 14.52788007 7 12 C6.20882096 10.00016466 6.20882096 10.00016466 5 8 C4.01 7.67 3.02 7.34 2 7 C0.8125 4.4375 0.8125 4.4375 0 2 C3 3 3 3 4 5 C4.66 4.34 5.32 3.68 6 3 C7.423125 3.7425 7.423125 3.7425 8.875 4.5 C11.72278166 6.14424369 11.72278166 6.14424369 14 6 C14.99 4.68 15.98 3.36 17 2 C11.39 1.67 5.78 1.34 0 1 C0 0.67 0 0.34 0 0 Z " fill="#3377A9" transform="translate(618,150)"/>
<path d="M0 0 C3.375 0.875 3.375 0.875 5.375 2.875 C5.5 5.5 5.5 5.5 5.375 7.875 C3.725 7.875 2.075 7.875 0.375 7.875 C0.375 6.885 0.375 5.895 0.375 4.875 C-0.615 5.37 -0.615 5.37 -1.625 5.875 C-1.625 9.175 -1.625 12.475 -1.625 15.875 C-0.965 14.555 -0.305 13.235 0.375 11.875 C2.025 11.875 3.675 11.875 5.375 11.875 C5.73289474 17.24342105 5.73289474 17.24342105 4.3125 19.75 C1.2680714 21.51773274 -1.1881012 21.24323916 -4.625 20.875 C-6.31640625 19.78515625 -6.31640625 19.78515625 -7.625 17.875 C-8.05859375 14.66015625 -8.05859375 14.66015625 -8.0625 10.9375 C-8.08183594 9.71160156 -8.10117187 8.48570312 -8.12109375 7.22265625 C-7.625 3.875 -7.625 3.875 -5.82421875 1.42578125 C-3.625 -0.125 -3.625 -0.125 0 0 Z " fill="#869CAA" transform="translate(473.625,162.125)"/>
<path d="M0 0 C1.98 0 3.96 0 6 0 C6.66 1.98 7.32 3.96 8 6 C8.33 4.02 8.66 2.04 9 0 C10.98 0 12.96 0 15 0 C13.9413873 6.75710231 12.77874156 13.39324562 11 20 C8.69 20 6.38 20 4 20 C3.32923511 17.23010036 2.66323683 14.45920258 2 11.6875 C1.80921875 10.90181641 1.6184375 10.11613281 1.421875 9.30664062 C1.24140625 8.54931641 1.0609375 7.79199219 0.875 7.01171875 C0.70742188 6.31522217 0.53984375 5.61872559 0.3671875 4.90112305 C0 3 0 3 0 0 Z " fill="#0082C7" transform="translate(344,163)"/>
<path d="M0 0 C1.90845703 0.04060547 1.90845703 0.04060547 3.85546875 0.08203125 C5.31919922 0.13423828 5.31919922 0.13423828 6.8125 0.1875 C6.8125 3.8175 6.8125 7.4475 6.8125 11.1875 C4.54225032 11.26847324 2.27117925 11.32667704 0 11.375 C-1.89685547 11.42720703 -1.89685547 11.42720703 -3.83203125 11.48046875 C-7.1875 11.1875 -7.1875 11.1875 -9.11328125 9.83203125 C-10.65513912 7.47158702 -10.6013927 5.9467847 -10.1875 3.1875 C-7.61448813 -0.75154727 -4.3686988 -0.12023942 0 0 Z " fill="#077ABB" transform="translate(525.1875,127.8125)"/>
<path d="M0 0 C1.90845703 0.04060547 1.90845703 0.04060547 3.85546875 0.08203125 C5.31919922 0.13423828 5.31919922 0.13423828 6.8125 0.1875 C6.8125 3.8175 6.8125 7.4475 6.8125 11.1875 C4.54225032 11.26847324 2.27117925 11.32667704 0 11.375 C-1.89685547 11.42720703 -1.89685547 11.42720703 -3.83203125 11.48046875 C-7.1875 11.1875 -7.1875 11.1875 -9.11328125 9.83203125 C-10.65513912 7.47158702 -10.6013927 5.9467847 -10.1875 3.1875 C-7.61448813 -0.75154727 -4.3686988 -0.12023942 0 0 Z " fill="#0269A9" transform="translate(625.1875,127.8125)"/>
<path d="M0 0 C1.98 0 3.96 0 6 0 C6 8.58 6 17.16 6 26 C4.02 26 2.04 26 0 26 C0 17.42 0 8.84 0 0 Z " fill="#0082C6" transform="translate(384,157)"/>
<path d="M0 0 C1.96066406 -0.03867188 1.96066406 -0.03867188 3.9609375 -0.078125 C7.78342506 0.26418732 9.71951611 0.75958524 12.625 3.25 C12.625 4.57 12.625 5.89 12.625 7.25 C5.035 7.58 -2.555 7.91 -10.375 8.25 C-10.375 5.94 -10.375 3.63 -10.375 1.25 C-6.78498391 0.05332797 -3.7845161 0.04461119 0 0 Z " fill="#0B73B1" transform="translate(619.375,109.75)"/>
<path d="M0 0 C1.65 0 3.3 0 5 0 C5 1.65 5 3.3 5 5 C5.66 5 6.32 5 7 5 C7 6.32 7 7.64 7 9 C6.34 9 5.68 9 5 9 C5 12.63 5 16.26 5 20 C5.66 20 6.32 20 7 20 C7 21.65 7 23.3 7 25 C4.69 24.67 2.38 24.34 0 24 C0 19.05 0 14.1 0 9 C-0.66 9 -1.32 9 -2 9 C-2 7.68 -2 6.36 -2 5 C-1.34 5 -0.68 5 0 5 C0 3.35 0 1.7 0 0 Z " fill="#859CA9" transform="translate(482,158)"/>
<path d="M0 0 C0.639375 0.226875 1.27875 0.45375 1.9375 0.6875 C2.9275 0.6875 3.9175 0.6875 4.9375 0.6875 C3.60417905 4.68746286 1.4417173 5.52532337 -2.0625 7.6875 C-1.7325 8.0175 -1.4025 8.3475 -1.0625 8.6875 C-1.0625 9.3475 -1.0625 10.0075 -1.0625 10.6875 C-4.8125 12.6875 -4.8125 12.6875 -7.0625 12.6875 C-7.59875 13.326875 -8.135 13.96625 -8.6875 14.625 C-12.06666058 17.55953419 -14.64796572 17.39319771 -19.0625 17.6875 C-16.88489854 13.70356028 -14.35709625 10.741133 -11.125 7.5625 C-10.27035156 6.71429688 -9.41570313 5.86609375 -8.53515625 4.9921875 C-2.73460073 -0.41433344 -2.73460073 -0.41433344 0 0 Z " fill="#0472B6" transform="translate(531.0625,61.3125)"/>
<path d="M0 0 C0.66 0 1.32 0 2 0 C3.23339675 3.70019025 3.19084914 7.14555812 3.1875 11 C3.18814453 11.75659912 3.18878906 12.51319824 3.18945312 13.29272461 C3.13279769 19.35034984 2.42668994 25.10216569 1 31 C-0.65 31.33 -2.3 31.66 -4 32 C-3.91275184 29.10275937 -3.80584073 26.20849865 -3.6875 23.3125 C-3.66494141 22.49587891 -3.64238281 21.67925781 -3.61914062 20.83789062 C-3.40179044 15.95739094 -2.7446031 13.14610256 0 9 C0.35794332 6.56475456 0.35794332 6.56475456 0.1875 4.1875 C0.16042969 3.39730469 0.13335937 2.60710937 0.10546875 1.79296875 C0.07066406 1.20128906 0.03585937 0.60960938 0 0 Z " fill="#045AA4" transform="translate(410,119)"/>
<path d="M0 0 C1.13050781 -0.02835937 2.26101563 -0.05671875 3.42578125 -0.0859375 C7.32273551 0.46476981 8.97888328 1.5596648 11.6875 4.375 C11.6875 5.365 11.6875 6.355 11.6875 7.375 C5.7475 7.375 -0.1925 7.375 -6.3125 7.375 C-6.9725 5.725 -7.6325 4.075 -8.3125 2.375 C-5.55912027 -0.37837973 -3.8403476 0.04349205 0 0 Z " fill="#0685C7" transform="translate(520.3125,109.625)"/>
<path d="M0 0 C7.59 0.33 15.18 0.66 23 1 C21.02 3.97 21.02 3.97 19 7 C13.25 5.125 13.25 5.125 11 4 C10.34 4.66 9.68 5.32 9 6 C8.67 5.01 8.34 4.02 8 3 C7.01 3.495 7.01 3.495 6 4 C6 4.99 6 5.98 6 7 C4.35 7.33 2.7 7.66 1 8 C1 7.34 1 6.68 1 6 C0.38125 5.71125 -0.2375 5.4225 -0.875 5.125 C-3 4 -3 4 -5 2 C-3.35 2 -1.7 2 0 2 C0 1.34 0 0.68 0 0 Z " fill="#0B6AA8" transform="translate(613,150)"/>
<path d="M0 0 C1.65 0 3.3 0 5 0 C5 6.6 5 13.2 5 20 C3.35 20 1.7 20 0 20 C0 13.4 0 6.8 0 0 Z " fill="#869BA9" transform="translate(401,163)"/>
<path d="M0 0 C1.65 0 3.3 0 5 0 C5 6.6 5 13.2 5 20 C3.35 20 1.7 20 0 20 C0 13.4 0 6.8 0 0 Z " fill="#0083C6" transform="translate(376,163)"/>
<path d="M0 0 C0.33 0.99 0.66 1.98 1 3 C1.66 3.33 2.32 3.66 3 4 C2.979375 4.763125 2.95875 5.52625 2.9375 6.3125 C2.87057159 9.10185786 2.87057159 9.10185786 4 12 C4.66 12 5.32 12 6 12 C7.125 17.625 7.125 17.625 6 21 C7.32 21.66 8.64 22.32 10 23 C9.67 23.99 9.34 24.98 9 26 C7.1875 25.8125 7.1875 25.8125 5 25 C3.95107762 23.36368108 2.95093297 21.69514137 2 20 C1.01 19.34 0.02 18.68 -1 18 C-1.33 17.01 -1.66 16.02 -2 15 C-2.66 14.34 -3.32 13.68 -4 13 C-2.68 13 -1.36 13 0 13 C0 13.66 0 14.32 0 15 C0.66 15 1.32 15 2 15 C1.50243908 12.24358584 1.50243908 12.24358584 0 10 C-0.07205511 8.31391034 -0.08386068 6.62499341 -0.0625 4.9375 C-0.05347656 4.01839844 -0.04445313 3.09929687 -0.03515625 2.15234375 C-0.02355469 1.44207031 -0.01195312 0.73179687 0 0 Z " fill="#1B89C9" transform="translate(582,133)"/>
<path d="M0 0 C0 3.32085089 -0.44339727 3.9803948 -2.25 6.625 C-5.57504099 11.73972311 -8.16490726 17.1368249 -9.875 23 C-10.24625 23.66 -10.6175 24.32 -11 25 C-14.125 25.8125 -14.125 25.8125 -17 26 C-13.65453734 15.8535639 -7.92680913 7.18367077 0 0 Z " fill="#98C0DE" transform="translate(525,72)"/>
<path d="M0 0 C0.90237205 2.43640453 1.02639131 3.87134234 0.5 6.4375 C-1.04950779 9.0845758 -2.00032777 9.81271305 -4.5 11.4375 C-7.43538497 13.35373884 -7.95798681 13.90318699 -9.4375 17.3125 C-9.623125 18.199375 -9.80875 19.08625 -10 20 C-10.33 20 -10.66 20 -11 20 C-10.51030705 13.38914524 -8.66557258 8.05022986 -6 2 C-5.01 2 -4.02 2 -3 2 C-2.01 1.34 -1.02 0.68 0 0 Z " fill="#0A76B9" transform="translate(509,90)"/>
<path d="M0 0 C3 2 3 2 3.6875 5.125 C3.790625 6.07375 3.89375 7.0225 4 8 C3.34 8 2.68 8 2 8 C1.34 9.65 0.68 11.3 0 13 C-2.97 12.505 -2.97 12.505 -6 12 C-6.33 10.02 -6.66 8.04 -7 6 C-2.25 3 -2.25 3 0 3 C0 2.01 0 1.02 0 0 Z " fill="#288FCD" transform="translate(602,144)"/>
<path d="M0 0 C0.598125 0.825 1.19625 1.65 1.8125 2.5 C2.8953125 3.7375 2.8953125 3.7375 4 5 C7.18208137 5 7.92030684 4.62927989 10.5 3 C13.07969316 1.37072011 13.81791863 1 17 1 C17 3.31 17 5.62 17 8 C14.72975032 8.08097324 12.45867925 8.13917704 10.1875 8.1875 C8.29064453 8.23970703 8.29064453 8.23970703 6.35546875 8.29296875 C3 8 3 8 1.0625 6.65625 C-0.39511156 4.3840908 -0.21411059 2.64069725 0 0 Z " fill="#0187C9" transform="translate(515,131)"/>
<path d="M0 0 C0.33 0.66 0.66 1.32 1 2 C-4.60459296 10.63702973 -10.4050504 17.9758608 -18 25 C-18.66 24.67 -19.32 24.34 -20 24 C-15.20833523 17.86353558 -10.25298036 11.95633618 -4.98046875 6.2265625 C-3.19604427 4.2204048 -1.57320055 2.17369666 0 0 Z " fill="#186197" transform="translate(642,160)"/>
<path d="M0 0 C7.26 0 14.52 0 22 0 C21.24872886 3.75635569 20.75994274 5.83210307 19 9 C16.69 8.67 14.38 8.34 12 8 C13.65 6.02 15.3 4.04 17 2 C11.39 1.67 5.78 1.34 0 1 C0 0.67 0 0.34 0 0 Z " fill="#4B8DB8" transform="translate(618,150)"/>
<path d="M0 0 C0.66 0.33 1.32 0.66 2 1 C0.66667905 4.99996286 -1.4957827 5.83782337 -5 8 C-4.67 8.33 -4.34 8.66 -4 9 C-4 9.66 -4 10.32 -4 11 C-6.57213134 12.61949011 -7.67669159 13.04408751 -10.75 12.625 C-11.86375 12.315625 -11.86375 12.315625 -13 12 C-12.87890625 10.265625 -12.87890625 10.265625 -12 8 C-9.27734375 5.859375 -9.27734375 5.859375 -5.9375 3.75 C-4.83277344 3.04359375 -3.72804688 2.3371875 -2.58984375 1.609375 C-1.73519531 1.07828125 -0.88054688 0.5471875 0 0 Z " fill="#217EBC" transform="translate(534,61)"/>
<path d="M0 0 C3 1 3 1 4 3 C4.66 2.34 5.32 1.68 6 1 C7.98 1.99 9.96 2.98 12 4 C12 4.66 12 5.32 12 6 C12.66 6 13.32 6 14 6 C14 7.65 14 9.3 14 11 C13.34 11 12.68 11 12 11 C12 10.34 12 9.68 12 9 C10.35 9.33 8.7 9.66 7 10 C6.731875 9.360625 6.46375 8.72125 6.1875 8.0625 C5.11332248 5.66868314 5.11332248 5.66868314 2 5 C0.8125 2.4375 0.8125 2.4375 0 0 Z " fill="#1C86C4" transform="translate(618,152)"/>
<path d="M0 0 C0.99 0 1.98 0 3 0 C3.33 1.32 3.66 2.64 4 4 C4 2.68 4 1.36 4 0 C4.99 0 5.98 0 7 0 C6.67 3.96 6.34 7.92 6 12 C4.68 12.33 3.36 12.66 2 13 C1.690625 12.030625 1.38125 11.06125 1.0625 10.0625 C0.30476658 7.15934208 0.30476658 7.15934208 -1 6 C-1.125 3.5 -1.125 3.5 -1 1 C-0.67 0.67 -0.34 0.34 0 0 Z " fill="#0C7DBD" transform="translate(593,125)"/>
<path d="M0 0 C0.99 0 1.98 0 3 0 C3 1.32 3 2.64 3 4 C3.99 4.33 4.98 4.66 6 5 C6.7013284 7.32315031 7.36485174 9.65789079 8 12 C8.53625 12.70125 9.0725 13.4025 9.625 14.125 C11.38708178 16.5278388 11.24251673 18.08979925 11 21 C7.17764695 17.70486806 5.72004503 14.64412157 4 10 C4 9.34 4 8.68 4 8 C3.01 8 2.02 8 1 8 C1 8.99 1 9.98 1 11 C0.01 10.67 -0.98 10.34 -2 10 C-1.34 10 -0.68 10 0 10 C0.66 7.03 1.32 4.06 2 1 C1.34 0.67 0.68 0.34 0 0 Z " fill="#6DC3EC" transform="translate(621,62)"/>
<path d="M0 0 C4.62 0 9.24 0 14 0 C12.02 2.97 12.02 2.97 10 6 C4.25 4.125 4.25 4.125 2 3 C1.34 3.66 0.68 4.32 0 5 C-0.33 4.34 -0.66 3.68 -1 3 C-0.67 2.01 -0.34 1.02 0 0 Z " fill="#015F9D" transform="translate(622,151)"/>
<path d="M0 0 C-0.763125 0.7425 -1.52625 1.485 -2.3125 2.25 C-4.4393702 4.4263323 -6.2559956 6.52167796 -8 9 C-9.32 8.67 -10.64 8.34 -12 8 C-12.33 6.68 -12.66 5.36 -13 4 C-3.42105263 -1.71052632 -3.42105263 -1.71052632 0 0 Z " fill="#147CBB" transform="translate(568,53)"/>
<path d="M0 0 C4.455 0.99 4.455 0.99 9 2 C7.96014641 5.11956076 7.32277946 5.84927828 5 8 C4.278125 8.721875 3.55625 9.44375 2.8125 10.1875 C1.9153125 11.0846875 1.9153125 11.0846875 1 12 C1.020625 11.13375 1.04125 10.2675 1.0625 9.375 C1.00261044 6.14096352 0.60419067 3.17200103 0 0 Z " fill="#1274B1" transform="translate(605,147)"/>
<path d="M0 0 C0.66 0.33 1.32 0.66 2 1 C2 1.99 2 2.98 2 4 C2.66 4 3.32 4 4 4 C4.66 5.65 5.32 7.3 6 9 C4.8125 10.5 4.8125 10.5 3 12 C0.3125 12.1875 0.3125 12.1875 -2 12 C-1.67 11.13375 -1.34 10.2675 -1 9.375 C-0.01268659 6.04281725 0.16420974 3.44840462 0 0 Z " fill="#0B75B3" transform="translate(621,84)"/>
<path d="M0 0 C0.33 0 0.66 0 1 0 C1.01981934 0.61520508 1.03963867 1.23041016 1.06005859 1.86425781 C1.15549727 4.65992542 1.26509955 7.4548651 1.375 10.25 C1.4059375 11.21808594 1.436875 12.18617187 1.46875 13.18359375 C1.50742187 14.11816406 1.54609375 15.05273438 1.5859375 16.015625 C1.6173584 16.87446289 1.6487793 17.73330078 1.68115234 18.61816406 C2.01818663 21.13585661 2.83937697 22.76697797 4 25 C3.625 27.25 3.625 27.25 3 29 C1 28 1 28 0.38110352 26.29003906 C-0.06517575 23.60836094 -0.11212024 21.07860527 -0.09765625 18.359375 C-0.09443359 17.28945312 -0.09121094 16.21953125 -0.08789062 15.1171875 C-0.07951172 14.00601563 -0.07113281 12.89484375 -0.0625 11.75 C-0.05798828 10.62335938 -0.05347656 9.49671875 -0.04882812 8.3359375 C-0.03705397 5.55723783 -0.0206084 2.77864591 0 0 Z " fill="#0379B9" transform="translate(496,115)"/>
<path d="M0 0 C0 0.99 0 1.98 0 3 C-2.046875 5.04296875 -2.046875 5.04296875 -4.75 7.1875 C-5.63171875 7.90292969 -6.5134375 8.61835938 -7.421875 9.35546875 C-10 11 -10 11 -14 11 C-14 10.34 -14 9.68 -14 9 C-11.953125 7.59765625 -11.953125 7.59765625 -9.25 6.0625 C-5.99924751 4.20424821 -2.95040742 2.30931422 0 0 Z " fill="#208EC9" transform="translate(624,180)"/>
<path d="M0 0 C0.33 0.99 0.66 1.98 1 3 C1.66 3.33 2.32 3.66 3 4 C2.979375 4.763125 2.95875 5.52625 2.9375 6.3125 C2.87057159 9.10185786 2.87057159 9.10185786 4 12 C4.66 12 5.32 12 6 12 C6 13.65 6 15.3 6 17 C5.01 16.67 4.02 16.34 3 16 C1.875 13.5 1.875 13.5 1 11 C0.67 10.67 0.34 10.34 0 10 C-0.07205511 8.31391034 -0.08386068 6.62499341 -0.0625 4.9375 C-0.05347656 4.01839844 -0.04445313 3.09929687 -0.03515625 2.15234375 C-0.02355469 1.44207031 -0.01195312 0.73179687 0 0 Z " fill="#298FCD" transform="translate(582,133)"/>
<path d="M0 0 C0.99 0.66 1.98 1.32 3 2 C0.71070947 3.17154293 -1.58118362 4.33738074 -3.875 5.5 C-4.52597656 5.83386719 -5.17695312 6.16773438 -5.84765625 6.51171875 C-10.7734375 9 -10.7734375 9 -13 9 C-12 6 -12 6 -9.125 4.25 C-6 3 -6 3 -3 4 C-2.67 3.01 -2.34 2.02 -2 1 C-1.34 0.67 -0.68 0.34 0 0 Z " fill="#0D88C9" transform="translate(618,165)"/>
<path d="M0 0 C2.91517292 1.07401108 4.77810176 1.77810176 7 4 C7 4.99 7 5.98 7 7 C2.05 7 -2.9 7 -8 7 C-8 6.67 -8 6.34 -8 6 C-4.7 5.67 -1.4 5.34 2 5 C2 4.01 2 3.02 2 2 C1.34 2 0.68 2 0 2 C0 1.34 0 0.68 0 0 Z " fill="#2F98D1" transform="translate(525,110)"/>
<path d="M0 0 C1.65 0 3.3 0 5 0 C5 1.98 5 3.96 5 6 C3.35 6 1.7 6 0 6 C0 4.02 0 2.04 0 0 Z " fill="#0083C6" transform="translate(393,177)"/>
<path d="M0 0 C0.66 0 1.32 0 2 0 C2.66 3.96 3.32 7.92 4 12 C0 9 0 9 -0.8125 6 C-1 3 -1 3 0 0 Z " fill="#0080C5" transform="translate(530,167)"/>
<path d="M0 0 C0.66 0.33 1.32 0.66 2 1 C1.02391783 3.92824652 -0.10786631 5.61426621 -2 8 C-2.99 7.67 -3.98 7.34 -5 7 C-4.60196439 4.11424181 -4.20990931 3.17810487 -1.9375 1.25 C-1.298125 0.8375 -0.65875 0.425 0 0 Z " fill="#3B83B3" transform="translate(625,163)"/>
<path d="M0 0 C0.66 0 1.32 0 2 0 C4.83258179 2.97850267 6.87464318 5.8216459 7.3125 9.9375 C7.209375 10.618125 7.10625 11.29875 7 12 C3.18281572 8.7093239 1.74459248 5.62317007 0 1 C0 0.67 0 0.34 0 0 Z " fill="#61B6E2" transform="translate(625,71)"/>
<path d="M0 0 C1.0625 1.8125 1.0625 1.8125 2 4 C1.67 4.99 1.34 5.98 1 7 C0.34 6.67 -0.32 6.34 -1 6 C-1 6.66 -1 7.32 -1 8 C-1.99 7.67 -2.98 7.34 -4 7 C-3.67 6.67 -3.34 6.34 -3 6 C-3.33 5.01 -3.66 4.02 -4 3 C-2.68 2.01 -1.36 1.02 0 0 Z " fill="#3592CC" transform="translate(565,56)"/>
<path d="M0 0 C0.99 0 1.98 0 3 0 C3.33 0.99 3.66 1.98 4 3 C2.1875 5.6875 2.1875 5.6875 0 8 C-0.66 8 -1.32 8 -2 8 C-2.33 8.66 -2.66 9.32 -3 10 C-2.39009109 6.44219804 -1.4216319 3.3171411 0 0 Z " fill="#056BAC" transform="translate(503,92)"/>
<path d="M0 0 C1.32 0.33 2.64 0.66 4 1 C3 4 3 4 1 5 C-0.87379605 5.07033769 -2.75001102 5.0843022 -4.625 5.0625 C-5.62789062 5.05347656 -6.63078125 5.04445313 -7.6640625 5.03515625 C-8.43492187 5.02355469 -9.20578125 5.01195313 -10 5 C-8 3 -8 3 -4.375 2.875 C-2.704375 2.936875 -2.704375 2.936875 -1 3 C-0.67 2.01 -0.34 1.02 0 0 Z " fill="#479FD2" transform="translate(625,92)"/>
<path d="M0 0 C1.2065625 0.0309375 1.2065625 0.0309375 2.4375 0.0625 C-0.1875 5.8125 -0.1875 5.8125 -3.5625 8.0625 C-3.60491723 5.72955225 -3.60342937 3.39547433 -3.5625 1.0625 C-2.5625 0.0625 -2.5625 0.0625 0 0 Z " fill="#1A81C0" transform="translate(609.5625,150.9375)"/>
<path d="M0 0 C0.99 0.33 1.98 0.66 3 1 C1.4375 3.5625 1.4375 3.5625 -1 6 C-4.75 5.8125 -4.75 5.8125 -8 5 C-8 4.67 -8 4.34 -8 4 C-6.02 4 -4.04 4 -2 4 C-1.34 2.68 -0.68 1.36 0 0 Z " fill="#0D64A2" transform="translate(604,152)"/>
<path d="M0 0 C2.97 0 5.94 0 9 0 C8.67 1.32 8.34 2.64 8 4 C5.36 3.01 2.72 2.02 0 1 C0 0.67 0 0.34 0 0 Z " fill="#2783B7" transform="translate(587,177)"/>
<path d="M0 0 C1.65 0 3.3 0 5 0 C5 1.32 5 2.64 5 4 C3.35 4 1.7 4 0 4 C0 2.68 0 1.36 0 0 Z " fill="#859BA9" transform="translate(401,157)"/>
<path d="M0 0 C1.65 0 3.3 0 5 0 C5 1.32 5 2.64 5 4 C3.35 4 1.7 4 0 4 C0 2.68 0 1.36 0 0 Z " fill="#0083C6" transform="translate(376,157)"/>
<path d="M0 0 C0 4.05480631 -1.54870092 5.84832975 -4 9 C-4.99 9 -5.98 9 -7 9 C-5.44499019 5.18315774 -2.96404505 2.80804268 0 0 Z " fill="#84B7DA" transform="translate(525,72)"/>
<path d="M0 0 C2.25245881 2.68841859 3.88213958 4.64641875 5 8 C3.68 7.67 2.36 7.34 1 7 C0.67 4.69 0.34 2.38 0 0 Z " fill="#118AC9" transform="translate(515,131)"/>
<path d="M0 0 C0.66 1.32 1.32 2.64 2 4 C1.01 5.32 0.02 6.64 -1 8 C-1.99 7.67 -2.98 7.34 -4 7 C-3.01 6.67 -2.02 6.34 -1 6 C-1.020625 5.195625 -1.04125 4.39125 -1.0625 3.5625 C-1 1 -1 1 0 0 Z " fill="#1673B0" transform="translate(521,70)"/>
</svg>
